/* XPM */
static char *_ff4826f045b49bed9de8f34788f02e3XkfbWOoQ37W52fPs[] = {
/* columns rows colors chars-per-pixel */
"64 64 99 2 ",
"   c #257F6B",
".  c #26806C",
"X  c #27836E",
"o  c #2C947D",
"O  c #30A289",
"+  c #31A78D",
"@  c #34B195",
"#  c #37BC9F",
"$  c #3FD7B5",
"%  c #42CDAE",
"&  c #44CCAE",
"*  c #45CDAF",
"=  c #41CFB0",
"-  c #47CEB0",
";  c #47CFB1",
":  c #40D2B2",
">  c #45D2B3",
",  c #44D3B3",
"<  c #40D4B3",
"1  c #48D0B2",
"2  c #49D2B4",
"3  c #4AD5B6",
"4  c #40D8B6",
"5  c #4BD7B8",
"6  c #40DBB9",
"7  c #41DDBA",
"8  c #42DFBC",
"9  c #47DEBD",
"0  c #4BD8B9",
"q  c #4CD9BA",
"w  c #4CDABA",
"e  c #4DDCBC",
"r  c #4DDEBE",
"t  c #42E0BD",
"y  c #4EE0BF",
"u  c #43E4C0",
"i  c #43E5C1",
"p  c #44E6C2",
"a  c #44E7C3",
"s  c #49E2C0",
"d  c #4FE1C0",
"f  c #4FE3C2",
"g  c #44E8C4",
"h  c #45EAC5",
"j  c #45ECC7",
"k  c #46EDC8",
"l  c #46EFCA",
"z  c #50E4C3",
"x  c #51E7C5",
"c  c #51E8C6",
"v  c #52EAC8",
"b  c #53EDCB",
"n  c #53EFCC",
"m  c #47F1CB",
"M  c #47F3CD",
"N  c #4EF2CD",
"B  c #48F4CE",
"V  c #48F6CF",
"C  c #54F1CE",
"Z  c #54F2CF",
"A  c #49F7D0",
"S  c #49F8D1",
"D  c #4AFBD4",
"F  c #4AFDD5",
"G  c #4BFFD7",
"H  c #4CFFD7",
"J  c #4EFFD8",
"K  c #56F6D2",
"L  c #56F7D3",
"P  c #57F9D5",
"I  c #59FAD7",
"U  c #58FCD7",
"Y  c #50FFD8",
"T  c #54FED8",
"R  c #55FED8",
"E  c #57FED9",
"W  c #59FFDA",
"Q  c #5DFEDA",
"!  c #5FFFDB",
"~  c #60FEDB",
"^  c #60FFDC",
"/  c #62FFDC",
"(  c #65FEDC",
")  c #6AFEDD",
"_  c #6AFFDE",
"`  c #6BFFDE",
"'  c #6EFEDE",
"]  c #6EFEDF",
"[  c #6FFFDF",
"{  c #70FEDF",
"}  c #72FFDF",
"|  c #73FFE0",
" . c #77FFE1",
".. c #7FFFE3",
"X. c #82FFE3",
"o. c #83FFE4",
"O. c #8BFFE5",
"+. c #8FFFE6",
"@. c #94FFE7",
/* pixels */
"@.O.o.o.o.o.o.o.o.o.o.o.o.o.o.o.o.o.o.o.o.o.o.o.o.o.o.o.o.o.o.o.o.o.o.o.o.o.o.o.o.o.o.o.o.o.o.o.o.o.o.o.o.o.o.o.o.o.o.o.o.o.| M ",
"X.+.O.o.o.o.o.o.o.o.o.o.o.o.o.o.o.o.o.o.o.o.o.o.o.o.o.o.o.o.o.o.o.o.o.o.o.o.o.o.o.o.o.o.o.o.o.o.o.o.o.o.o.o.o.o.o.o.o.o.o.| M + ",
" .X...| | | | | | | | | | | | | } |  .} | | | | | | | | | | | | | | | | | | | | | | | | | | | | | | | | | | | | | | | | | G + X ",
" . .` G G G G G G G G G G G G G G G G G G G G G G G G G G G G G G G G G G G G G G G G G G G G G G G G G G G G G G G G G G # X X ",
" . .` G G G G G G G G G G G G G G G G G G G G G G G G G G G G G G G G G G G G G G G G G G G G G G G G G G G G G G G G G G # X X ",
" . .` G G G G G G G G G G G G G G G G G G G G G G G G G G G G G G G G G G G G G G G G G G G G G G G G G G G G G G G G G G # X X ",
" . .` G G G G G G G G G G G G G G G G G G G G G G G G G G G G G G G G G G G G G G G G G G G G G G G G G G G G G G G G G G # X X ",
" . .` G G G G G G G G G G G G G G G G G G G G G G G G G G G G G G G G G G G G G G G G G G G G G G G G G G G G G G G G G G # X X ",
" . .` G G G G G G G G G G G G G G G G G G G G G G G G G G G G G G G G G G G G G G G G G G G G G G G G G G G G G G G G G G # X X ",
" . .` G G G G G G G G G G G G G G G G G G G G G G G G G G G G G G G G G G G G G G G G G G G G G G G G G G G G G G G G G G # X X ",
" . .` G G G G G G G G G G G G G G G G G G G G G G G G G G G G G G G G G G G G G G G G G G G G G G G G G G G G G G G G G G # X X ",
" . .` G G G G G G G G G G G G G G G G G G G G G G G G G G G G G G G G G G G G G G G G G G G G G G G G G G G G G G G G G G # X X ",
" . .` G G G G G G G G G G G G G G G G G G G G G G G G G G G G G G G G G G G G G G G G G G G G G G G G G G G G G G G G G G # X X ",
" . .` G G G G G G G G G G G G G G G G G G G G G G G G G G G G G G G G G G G G G G G G G G G G G G G G G G G G G G G G G G # X X ",
" . .` G G G G G G G G G G G G G G G G G G G G G G G G G G G G G G G G G G G G G G G G G G G G G G G G G G G G G G G G G G # X X ",
" . .` G G G G G G G G G G G G G G G G G G G G G G G G G G G G G G G G G G G G G G G G G G G G G G G G G G G G G G G G G G # X X ",
" . .` G G G G G G G G G G G G G G G G G G G G G H G G G G G G G G G G G G G G G G G G H G G G G G G G G G G G G G G G G G # X X ",
" . .` G G G G G G G G G G G G G G G G G G G J Q  .} } | | ` W L A G G G  .| | | | ` W W | | | | } | | E B D G G G G G G G # X X ",
" . .` G G G G G G G G G G G G G G G G G G G Q | / W W W L w > 8 M A G G ] W W W C 5 : p ( W W W W W E r i A G G G G G G G # X X ",
" . .` G G G G G G G G G G G G G G G G G G W | / W W W L r % 4 i B G G G ] W W n 5 % $ g [ W W W W W E w 7 M G G G G G G G # X X ",
" . .` G G G G G G G G G G G G G G G G G W | / W W W L r * $ i B G G G G [ R n 5 % $ h A ` W W W W W W q 7 M G G G G G G G # X X ",
" . .` G G G G G G G G G G G G G G G G E } ( W W W I r * $ i B G G G G G ` K 5 % $ h A G ] W W W W W W q 7 M G G G G G G G # X X ",
" . .` G G G G G G G G G G G G G G G E } ` W W W I r * $ 8 B S G G G G G / r = $ g M G G ] E W W W W W q 7 M G G G G G G G # X X ",
" . .` G G G G G G G G G G G G G G Y } ( W W W I z % $ t m G G G G G G G P 3 $ g B G G G | W W W W W W 5 7 M G G G G G G G # X X ",
" . .` G G G G G G G G G G G G G Y } ( W W W I x * < t m G G G G G G G G N i g A G G G H [ W W W E W K 2 7 M G G G G G G G # X X ",
" . .` G G G G G G G G G G G G J [ ` Q W W W x * < t j H G G G G G G G G A M M G G G G ~ [ W W W W C w > 8 B G G G G G G G # X X ",
" . .` G G G G G G G G G G G J [ ` W W W W c ; $ t k H G G G G G G G G G G S G G G G / [ Q W W W C 3 = $ h S G G G G G G G # X X ",
" . .` G G G G G G G G G G G [ ` Q W W W x ; : t m S G G G G G G G G G G G G G G H Q } / W W W n 5 % $ g B G G G G G G G G # X X ",
" . .` G G G G G G G G G G ` [ Q W W W v 2 : 7 k S G G G G G G G G G G G G G G G Q | / W W E K 5 % $ h S G G G G G G G G G # X X ",
" . .` G G G G G G G G G ` [ Q W W W b 2 : 7 k S G G G G G G G G G G G G G G G ! | ! W W W K q = $ h S G G G G G G G G G G # X X ",
" . .` G G G G G G G G ` [ Q W W W n 3 = 6 k A G G G G G G G G G G G G G J J / | / W W W n 5 % $ i S G G G G G G G G G G G # X X ",
" . .` G G G G G G G ( [ Q E W W C 3 = 6 h A G J G G G G G G G G G G G G G W | ! W W W L 2 % $ i S G G G G G G G G G G G G # X X ",
" . .` G G G G G G / ] ! W W W W E s $ h S G G G G G G G G G G G G G G G / [ / W W W W r : 6 i S G G G G G G G G G G G G G # X X ",
" . .` G G G G G G | ! W W W W W W Q ` | [ | | | | | | | | | | | W M D G | / W W W W W 3 4 p S G G G G G G G G G G G G G G # X X ",
" . .` G G G G G G ` W W W W W W W W W W W W W W E W W W E E W W q i S G [ W W W W W W q 4 k J G G G G E D G G G G G G G G # X X ",
" . .` G G G G G G ] W W W W W W W W W W W W W W W W W W W W W W r $ M G ` W W W W W W w 7 M G G G G ` E M S G G G G G G G # X X ",
" . .` G G G G G G ] W W W W W W W W W W W W W W W W W W W W W W r t M G [ W W W W W W w $ M G G H [ ] f t S G G G G G G G # X X ",
" . .` G G G G G G ] W W W W W W W W W W W W W W W W W W W W W W w $ M G ` W W W W W W w t M G T [ ` ! q 6 M G G G G G G G # X X ",
" . .` G G G G G G P 2 2 5 3 2 3 2 2 ; 2 2 2 2 2 C E W W W W W W 5 $ M G [ W W W W W W w $ S T } ` W W 5 6 M G G G G G G G # X X ",
" . .` G G G G G G S g $ $ 8 $ $ 7 7 7 8 8 $ t 7 $ Q W W W W W W r t m G ` W W W W W W c $ P } ` W W W 5 8 N G G G G G G G # X X ",
" . .` G G G G G G D S M M M M M N M M M M M M M M ` W W W W W W w 8 B G L 2 2 2 2 2 2 ; 9 W f 2 2 3 2 * $ M G G G G G G G # X X ",
" . .` G G G G G G G G G G G G G G G G G G G G G G [ W W W W W W 5 4 M G A i 7 7 7 7 7 7 i h p t $ 8 $ $ g M G G G G G G G # X X ",
" . .` G G G G G G G G G G G G G G G G G G G G G G ` W W W W W W r 8 M G S A M M M M M M B S B M A B M M A G G G G G G G G # X X ",
" . .` G G G G G G G G G G G G G G G G G G G G G J ] W W W W W W w $ M G G G G G G G G G G G G G G G G G G G G G G G G G G # X X ",
" . .` G G G G G G G G G G G G G G G G G G G G G G ] E W W W W W 5 4 M G G G G G G G G G G G G G G G G G G G G G G G G G G # X X ",
" . .` G G G G G G G G G G G G G G G G G G G G G G ` W W W W W E r 8 M G G G G G G G G G G G G G G G G G G G G G G G G G G # X X ",
" . .` G G G G G G G G G G G G G G G G G G G G G G L 2 2 2 2 2 2 & 7 M G G G G G G G G G G G G G G G G G G G G G G G G G G # X X ",
" . .` G G G G G G G G G G G G G G G G G G G G G G S i 8 $ 8 t $ 6 i B G G G G G G G G G G G G G G G G G G G G G G G G G G # X X ",
" . .` G G G G G G G G G G G G G G G G G G G G G G S S M M M M M M S D G G G G G G G G G G G G G G G G G G G G G G G G G G # X X ",
" . .` G G G G G G G G G G G G G G G G G G G G G G G G G G G G G G G G G G G G G G G G G G G G G G G G G G G G G G G G G G # X X ",
" . .` G G G G G G G G G G G G G G G G G G G G G G G G G G G G G G G G G G G G G G G G G G G G G G G G G G G G G G G G G G # X X ",
" . .` G G G G G G G G G G G G G G G G G G G G G G G G G G G G G G G G G G G G G G G G G G G G G G G G G G G G G G G G G G # X X ",
" . .` G G G G G G G G G G G G G G G G G G G G G G G G G G G G G G G G G G G G G G G G G G G G G G G G G G G G G G G G G G # X X ",
" . .` G G G G G G G G G G G G G G G G G G G G G G G G G G G G G G G G G G G G G G G G G G G G G G G G G G G G G G G G G G # X X ",
" . .` G G G G G G G G G G G G G G G G G G G G G G G G G G G G G G G G G G G G G G G G G G G G G G G G G G G G G G G G G G # X X ",
" . .` G G G G G G G G G G G G G G G G G G G G G G G G G G G G G G G G G G G G G G G G G G G G G G G G G G G G G G G G G G # X X ",
" . .` G G G G G G G G G G G G G G G G G G G G G G G G G G G G G G G G G G G G G G G G G G G G G G G G G G G G G G G G G G # X X ",
" . .` G G G G G G G G G G G G G G G G G G G G G G G G G G G G G G G G G G G G G G G G G G G G G G G G G G G G G G G G G G # X X ",
" . .` G G G G G G G G G G G G G G G G G G G G G G G G G G G G G G G G G G G G G G G G G G G G G G G G G G G G G G G G G G # X X ",
" . .` G G G G G G G G G G G G G G G G G G G G G G G G G G G G G G G G G G G G G G G G G G G G G G G G G G G G G G G G G G # X X ",
" . .` G G G G G G G G G G G G G G G G G G G G G G G G G G G G G G G G G G G G G G G G G G G G G G G G G G G G G G G G G G # X X ",
" .( k @ @ @ @ @ @ @ @ @ @ @ @ @ @ @ @ @ @ @ @ @ @ @ @ @ @ @ @ @ @ @ @ @ @ @ @ @ @ @ @ @ @ @ @ @ @ @ @ @ @ @ @ @ @ @ @ @ @ O X X ",
"/ u o X                                                                                                                         ",
"6 o                                                                                                                             "
};
