/* XPM */
static char *_9b1fa65737045b5c169448e2d04ccdb1kxrTghIjyKWaqCr[] = {
/* columns rows colors chars-per-pixel */
"64 64 72 1 ",
"  c #7F2525",
". c #832727",
"X c #942C2C",
"o c #A23030",
"O c #A73131",
"+ c #B13434",
"@ c #BC3737",
"# c #D73F3F",
"$ c #CF4141",
"% c #C94646",
"& c #CC4444",
"* c #CF4747",
"= c #CE4848",
"- c #D24040",
"; c #D44040",
": c #D34444",
"> c #D24545",
", c #DA4040",
"< c #DE4141",
"1 c #DE4747",
"2 c #D24949",
"3 c #D54A4A",
"4 c #D74B4B",
"5 c #D84B4B",
"6 c #DC4D4D",
"7 c #DE4D4D",
"8 c #E14242",
"9 c #E54343",
"0 c #E74444",
"q c #E84444",
"w c #EA4545",
"e c #ED4646",
"r c #E24949",
"t c #E14F4F",
"y c #E34F4F",
"u c #F14747",
"i c #F44848",
"p c #F74949",
"a c #F24E4E",
"s c #F44F4F",
"d c #F84949",
"f c #F94949",
"g c #FC4A4A",
"h c #FF4B4B",
"j c #FF4C4C",
"k c #E45050",
"l c #E55050",
"z c #EC5252",
"x c #EF5353",
"c c #F15454",
"v c #F25454",
"b c #F75656",
"n c #FF5050",
"m c #FA5757",
"M c #FE5757",
"N c #FA5959",
"B c #FF5A5A",
"V c #FF5F5F",
"C c #FE6060",
"Z c #FE6161",
"A c #FE6565",
"S c #FF6A6A",
"D c #FF6C6C",
"F c #FF7171",
"G c #FF7777",
"H c #FF7878",
"J c #FF7F7F",
"K c #FF8282",
"L c #FF8383",
"P c #FF8B8B",
"I c #FF8F8F",
"U c #FF9494",
/* pixels */
"UPKKLLLLLLLLLLLLLLLLLLLLLLLLKKLLLLLLLLLLKKLLLLLLLLLLKKLLLLLLLKFu",
"KIULLKLLLLLKLLLLLKLLLLLKLLLLKKLLLLLKLLLLKKLLLLLKLLLLKKLLLLLKLHiO",
"GKJDFFGFHFFFGFHFFFGFHFFFGFHFFGFFHFFFGFHFFGFFHFFFGFHFFGFFHFFFFjO.",
"GGSjhhhhhhjjhhhhhhhhhhjjhhhhhjjhhhjhhhhhhjjhhhjhhhhhhjjhhhjhj@..",
"GGDhhhhhhhhhhhhhhhhhhhhhhhhhhhhhhhhhhhhhhhhhhhhhhhhhhhhhhhhhh@..",
"GGShhhhhhhhhhhhhhhhhhhhhhhhhhhhhhhhhhhhhhhhhhhhhhhhhhhhhhhhhh@..",
"GGShhhhhhhhhhhhhhhhhhhhhhhhhhhhhhhhhhhhhhhhhhhhhhhhhhhhhhhhhh@..",
"GGDhhhhhhhhhhhhhhhhhhhhhhhhhhhhhhhhhhhhhhhhhhhhhhhhhhhhhhhhhh@..",
"GGShhhhhhhhhhhhhhhhhhhhhhhhhhhhhhhhhhhhhhhhhhhhhhhhhhhhhhhhhh@..",
"GGDhhhhhhhhhhhhhhhhhhhhhhhhhhhhhhhhhhhhhhhhhhhhhhhhhhhhhhhhhh@..",
"GGShhhhhhhhhhhhhhhhhhhhhhhhhhhhhhhhhhhhhhhhhhhhhhhhhhhhhhhhhh@..",
"GGShhhhhhhhhhhhhhhhhhhhhhhhhhhhhhhhhhhhhhhhhhhhhhhhhhhhhhhhhh@..",
"GGSjhhhhhhhhhhhhhhhhhhhhhhhhhhhhhhhhhhhhhhhhhhhhhhhhhhhhhhhhh@..",
"GGShhhhhhhhhhhhhhhhhhhhhhhhhhhhhhhhhhhhhhhhhhhhhhhhhhhhhhhhhh@..",
"GGDhhhhhhhhhhhhhhhhhhhhhhhhhhhhhhhhhhhhhhhhhhhhhhhhhhhhhhhhhh@..",
"GHShhhhhhhhhhhhhhhhhhhhhhhhhhhhhhhhhhhhhhhhhhhhhhhhhhhhhhhhhh@..",
"GGDhhhhhhhhhhhhhhhhhhhhhhhhhhhjhhhhhjjhjhhhhhjhhhjjhhhhhhhhhh@..",
"GGShhhhhhhhhhhhhhhhhhhhZGFFFFSBsihhhHFFFFSBNGFFFFFFBihhhhhhhh@..",
"GGShhhhhhhhhhhhhhhhhhhVFZBBMb3>8udhhDBBBv3>9ABMBBBB7qdhhhhhhh@..",
"GGDhhhhhhhhhhhhhhhhhhVFZBMBb7*;wijhhDBBc4-#wSBBBMBB3#uhhhhhhh@..",
"GGShhhhhhhhhhhhhhhhhMFABBBb7*#9ihhhhDBc4$,0iDBBMBBB4<uhhhhhhh@..",
"GGDhhhhhhhhhhhhhhhhMFABBBN7*#9ihhhhhSv4$,0ijDBBBBMB7;ihhhhhhh@..",
"GGDhhhhhhhhhhhhhhhMFABBBN7*#<udhhhhhA5$#0idjDBBMBBM58uhhhhhhh@..",
"GGShhhhhhhhhhhhhjnFABMBmt$#8uhhhhhhhN>,wdjjjDMBBMBB38ihhhhhhh@..",
"GGSjhhhhhhhhhhhhnFABBBmy*;8uhhhhhhhha9wuhhhhSBMBBBc2#uhhhhhhh@..",
"GGShhhhhhhhhhjhnFSVBBMk*#<uhhhhhhhhhduihhhhZDBBBBc3$8ihhhhhhh@..",
"GGDhhhhhhhhhjjjDSBMBBy=;8udjhhhhhhhhhhhhhhZFZMBMc3#,edhhhhhhh@..",
"GHShhhhhhhhhjjDSVBMBx2-<edhhhhhhhhhhhhhhhZFZBBBc4$#qihhhhhhhh@..",
"GGDhhhhhhhhhjSSVMBBx2#<edjhhhhhhhhhhhhhhZFZBBBc4$,wihhhhhhhhh@..",
"GGShhhhhhhjjSDVBMBx2$#edhhhhhhhhhhhhhhhVFZBMBc4-,0djhhhhhhhhh@..",
"GGShhhhhhhhSDVBMBx3-,edhhhhhhhhhhhhhhhZFZBBBc3$#0idjhhhhhhhhh@..",
"GGDhhhhhhhADZBBBc3$#wdjhhhhhhhhhhhhhhZFZBBBc4$#wdhhjhhhhhhhhh@..",
"GGShhhhhjZSVBMMBmr#wijhhjjhhhjhhhhhhZFZBMBB7-,9ijhhhhhhhhhhhh@..",
"GGShhhhhjFZBBBBBBVSFFFFFFFFFFFFFBidhFZBBBBM3-0ihhhhhhhhhhhhhh@..",
"GGShhhhhjDMBMBBMBBBBBBBMBBBMBBMB30ihDBBMBMB7<ujhhhhMhhhhhhhhh@..",
"GGShhhhhjDBBMBBMBMBBBBBMBBBMBBBB7,ujDMBBBMB3<ujhhhSMudhhhhhhh@..",
"GGSjhhhhjDBBBBBBBBMBMBBBMMBBBBMM5<uhDBBBMBB7<ujjjDSk8ihhhhhhh@..",
"GGShhhhhjDBBBBMBMBMBBBMBBBBMMBBB5<ihDBMBBBM5<ujjFDZ3<uhhhhhhh@..",
"GGDhhhhhhN22224;22222222xMBMMBBB7<ihDMBBBMB5<uMFSVM7<ijhhhhhh@..",
"GHShhhhhhi8<<<<#<<<<<<<<#VBBBBMM5,ujDBBMBBBk<mFSBBB3<uhhhhhhh@..",
"GGDhhhhhhhuuiieiuuuuiuiiuDBBBMBB3,ujm>22222=1Mk222>*#uhhhhhhh@..",
"GGShhhhhhhhhhhhhhhhhhhhhjDBBBBMB7<uji9<,<<,<9ww<<<<#wihhhhhhh@..",
"GGShhhhhhhhhhhhhhhhhhhhhhDBBMMBB5<ijhiiuuuuiidiuuuuudhhhhhhhh@..",
"GGDhhhhhhhhhhhhhhhhhhhhhhDMMBBBM7<uhhhhhhhhjhhjhhhhhhhhhhhhhh@..",
"GGShhhhhhhhhhhhhhhhhhhhhhDBBBBBB3<uhhhhhhhhhhhhhhhhhhhhhhhhhh@..",
"GGDhhhhhhhhhhhhhhhhhhhhhjSBBMMBB7<uhhhhhhhhhhhhhhhhhhhhhhhhhh@..",
"GGDhhhhhhhhhhhhhhhhhhhhhhb2222>3%<ehhhhhhhhhhhhhhhhhhhhhhhhhh@..",
"GGShhhhhhhhhhhhhhhhhhhhhhi9<<<8#,0djhhhhhhhhhhhhhhhhhhhhhhhhh@..",
"GGSjhhhhhhhhhhhhhhhhhhhhhhiuuiiuuiihhhhhhhhhhhhhhhhhhhhhhhhhh@..",
"GGShhhhhhhhhhhhhhhhhhhhhhhhhhhhhjhjhhhhhhhhhhhhhhhhhhhhhhhhhh@..",
"GGDhhhhhhhhhhhhhhhhhhhhhhhhhhhhhhhhhhhhhhhhhhhhhhhhhhhhhhhhhh@..",
"GHShhhhhhhhhhhhhhhhhhhhhhhhhhhhhhhhhhhhhhhhhhhhhhhhhhhhhhhhhh@..",
"GGDhhhhhhhhhhhhhhhhhhhhhhhhhhhhhhhhhhhhhhhhhhhhhhhhhhhhhhhhhh@..",
"GGShhhhhhhhhhhhhhhhhhhhhhhhhhhhhhhhhhhhhhhhhhhhhhhhhhhhhhhhhh@..",
"GGShhhhhhhhhhhhhhhhhhhhhhhhhhhhhhhhhhhhhhhhhhhhhhhhhhhhhhhhhh@..",
"GGDhhhhhhhhhhhhhhhhhhhhhhhhhhhhhhhhhhhhhhhhhhhhhhhhhhhhhhhhhh@..",
"GGShhhhhhhhhhhhhhhhhhhhhhhhhhhhhhhhhhhhhhhhhhhhhhhhhhhhhhhhhh@..",
"GGDhhhhhhhhhhhhhhhhhhhhhhhhhhhhhhhhhhhhhhhhhhhhhhhhhhhhhhhhhh@..",
"GGDhhhhhhhhhhhhhhhhhhhhhhhhhhhhhhhhhhhhhhhhhhhhhhhhhhhhhhhhhh@..",
"GGShhhhhhhhhhhhhhhhhhhhhhhhhhhhhhhhhhhhhhhhhhhhhhhhhhhhhhhhhh@..",
"GHSjhhhhhhhhhhhhhhhhhhhhhhhhhhhhhhhhhhhhhhhhhhhhhhhhhhhhhhhhh@..",
"GAe++++++++++++++++++++++++++++++++++++++++++++++++++++++++++o..",
"A8X                                                             ",
"<X                                                              "
};
