/* XPM */
static char *e809b946a07047149052dc5e2abc75d9QwqpVwiULg8Ne3yp[] = {
/* columns rows colors chars-per-pixel */
"64 64 95 2 ",
"   c #2E257F",
".  c #2F2783",
"X  c #352C94",
"o  c #3A30A2",
"O  c #3C31A7",
"+  c #4034B1",
"@  c #4437BC",
"#  c #4E3FD7",
"$  c #4F41CF",
"%  c #5346C9",
"&  c #5042CD",
"*  c #5245CC",
"=  c #5345CD",
"-  c #5346CE",
";  c #5447CF",
":  c #5548CE",
">  c #4E40D2",
",  c #4E40D4",
"<  c #4F41DC",
"1  c #5245D2",
"2  c #5244D3",
"3  c #5548D0",
"4  c #5649D2",
"5  c #574AD3",
"6  c #574AD4",
"7  c #584AD5",
"8  c #594BD7",
"9  c #5041DD",
"0  c #5041DE",
"q  c #5547DE",
"w  c #594BD8",
"e  c #594CD9",
"r  c #5A4CDA",
"t  c #5B4DDE",
"y  c #5142E0",
"u  c #5142E1",
"i  c #5243E4",
"p  c #5344E6",
"a  c #5749E2",
"s  c #5C4EE0",
"d  c #5D4FE3",
"f  c #5444E8",
"g  c #5445EA",
"h  c #5545EC",
"j  c #5E50E5",
"k  c #5F51E7",
"l  c #5747F1",
"z  c #5747F2",
"x  c #5847F3",
"c  c #5D4EF2",
"v  c #5848F4",
"b  c #5948F6",
"n  c #5949F7",
"m  c #5E4FF4",
"M  c #5A49F9",
"N  c #5B4AFB",
"B  c #5C4BFE",
"V  c #5C4BFF",
"C  c #5D4CFF",
"Z  c #6152EC",
"A  c #6253EF",
"S  c #6454F2",
"D  c #6556F6",
"F  c #6656F7",
"G  c #6757F9",
"H  c #6050FF",
"J  c #6454FE",
"K  c #6555FE",
"L  c #6858FC",
"P  c #6858FD",
"I  c #6959FE",
"U  c #6959FF",
"Y  c #6A5AFF",
"T  c #6B5BFF",
"R  c #6E5FFF",
"E  c #6F60FE",
"W  c #6F60FF",
"Q  c #7161FF",
"!  c #7465FE",
"~  c #7566FF",
"^  c #7668FE",
"/  c #786AFF",
"(  c #7A6CFF",
")  c #7C6EFE",
"_  c #7D6FFF",
"`  c #7F72FF",
"'  c #8072FF",
"]  c #8073FF",
"[  c #8477FF",
"{  c #8578FF",
"}  c #8E82FF",
"|  c #8F83FF",
" . c #968BFF",
".. c #9A8FFF",
"X. c #9E94FF",
/* pixels */
"X. .} } | | | | | | | | | | | | | | | | | | | | | | | | | | | | | | | | | | | | | | | | | | | | | | | | | | | | | | | | | | ] x ",
"} .. .| } } | | | | } } | | | | | | | | | | | | | | | | | | | | | | | | | | | | | | | | | | | | | | | | | | | | | | | | | ` n O ",
"[ } } ] ] ] ] ] ] ] ] ] ] ] ] ] ` ` ` ` ] ` ` ` ` ` ` ] ` ` ` ` ] ` ` ` ` ` ` ] ` ` ` ` ] ` ` ` ` ` ` ] ` ` ` ` ] ` ` ` ] M O . ",
"[ [ / V V V V V C C V V V V C C V C C V C C C C C V C C V C C V C C C C C V C C V C C V C C C C C V C C V C C V C C C C C @ . . ",
"[ [ ( V V V V V V V V V V V V V V V V V V V V V C V V V V V V V V V V V C V V V V V V V V V V V C V V V V V V V V V V V C @ . . ",
"[ [ / V V V V V V V V V V V V V V V V V V V V V V V V V V V V V V V V V V V V V V V V V V V V V V V V V V V V V V V V V V @ . . ",
"[ [ / V V V V V V V V V V V V V V V V V V V V V V V V V V V V V V V V V V V V V V V V V V V V V V V V V V V V V V V V V V @ . . ",
"[ [ ( V V V V V V V V V V V V V V V V V V V V V V V V V V V V V V V V V V V V V V V V V V V V V V V V V V V V V V V V V V @ . . ",
"[ [ / V V V V V V V V V V V V V V V V V V V V V V V V V V V V V V V V V V V V V V V V V V V V V V V V V V V V V V V V V V @ . . ",
"[ [ ( V V V V V V V V V V V V V V V V V V V V V V V V V V V V V V V V V V V V V V V V V V V V V V V V V V V V V V V V V V @ . . ",
"[ [ ( V V V V V V V V V V V V V V V V V V V V V V V V V V V V V V V V V V V V V V V V V V V V V V V V V V V V V V V V V V @ . . ",
"[ [ / V V V V V V V V V V V V V V V V V V V V V V V V V V V V V V V V V V V V V V V V V V V V V V V V V V V V V V V V V V @ . . ",
"[ [ / C V V V V V V V V V V V V V V V V V V V V V V V V V V V V V V V V V V V V V V V V V V V V V V V V V V V V V V V V V @ . . ",
"[ [ / V V V V V V V V V V V V V V V V V V V V V V V V V V V V V V V V V V V V V V V V V V V V V V V V V V V V V V V V V V @ . . ",
"[ [ ( V V V V V V V V V V V V V V V V V V V V V V V V V V V V V V V V V V V V V V V V V V V V V V V V V V V V V V V V V V @ . . ",
"[ { / V V V V V V V V V V V V V V V V V V V V V V V V V V V V C V V V V V V V V V V V V V V V V V V V V V V V V V V V V V @ . . ",
"[ [ ( V V V V V V V V V V V V V V V V V V V V V C C C V V V C C V V V V V V V V V V V V V V V V V V V V V V V V V V V V V @ . . ",
"[ [ / V V V V V V V V V V V V V V V V V V V V E ` ` ` ` ] ^ I m M V V V [ ] ] ] ] / T P ] ] ] ] ` ` ` I l C V V V V V V V @ . . ",
"[ [ / V V V V V V V V V V V V V V V V V V V R ` Q I I I F 8 1 i x N V V ( P I I S 7 2 f ! P I I I I I e i n V V V V V V V @ . . ",
"[ [ ( V V V V V V V V V V V V V V V V V V I ] Q I I I D t ; , i x N V V ( Y T S 7 & # f ( P I I I I I e < v V V V V V V V @ . . ",
"[ [ / V V V V V V V V V V V V V V V V C I ] Q I I I G t > , i x V V V V / T S w & # h N ( T I I I I I e 9 x V V V V V V V @ . . ",
"[ [ ( V V V V V V V V V V V V V V V V K ] ! I I I F t ; , i x V V V V V _ S 7 & # f x V ( I I I I I I e 9 x V V V V V V V @ . . ",
"[ [ ( V V V V V V V V V V V V V V V K ] ! I I I F j - 9 u n C V V V V V ! 7 = # f b V V ( T I I I I I e 9 x C V V V V V V @ . . ",
"[ [ / V V V V V V V V V V V V V V K ] / I I I I j - > 9 x M N V V V V V I 2 # f x V V V ( I I I I I I e 9 x V V V V V V V @ . . ",
"[ [ / C V V V V V V V V V V V V C ] ! I I I I j - , u l V V V V V V V V c f f x V V V V _ T I I I I D 3 9 x V V V V V V V @ . . ",
"[ [ / V V V V V V V V V V V V H ` / R I I I j : , u h V C N N C V V V V M x x V V V V W ( P I I I S w & u x V V V V V V V @ . . ",
"[ [ ( V V V V V V V V V V V C _ / I P I L j 3 > 9 g V V V V V C V V V V V V V V V V W ] Q I I I S w & 9 g M V V V V V V V @ . . ",
"[ { / V V V V V V V V V V C _ / T I I I Z 3 > u l V V V C N V N V V V V V V V V V W ] W T P I S 7 & , i n V V V V V V V V @ . . ",
"[ [ ( V V V V V V V V V C / / R I I I A : > 9 h M V V V N C V V V V V V V V V V R ] Q I I I S 7 & # g x V V V V V V V V V @ . . ",
"[ [ / V V V V V V V V C ^ _ R I I I A 7 > 9 h M V V C N V V C N V V V V V V V W ] Q I I I S 7 2 9 g n V V V V V V V V V V @ . . ",
"[ [ / V V V V V V V V ^ _ R I I I A 7 > 9 g M V N V N V N V N V V V V V V V W ] W I I T S 7 - # g x V V V V V V V V V V V @ . . ",
"[ [ ( V V V V V V V ! _ R I I I S 7 & # g n C V C V C V C V C V V V V V V E ] E I I I S w & # g x V V V V V V V V V V V V @ . . ",
"[ [ / V V V V V V Q ` Q I I I I G a # f x V V V V V V V V V V V V V V V ! ] W Y I I I t & 9 p n V V V V V V V V V V V V V @ . . ",
"[ [ ( V V V V V V ] R I I I I I I R / ` ] ` ` ` ` ` ` ` ` ] ] ] T x V V ] W P P I I I w # p x V V V V V V V V V V V V V V @ . . ",
"[ [ / C V V V V V / I I I I I I I I I I I I I I I I I I I I I I 7 f x V ( P Y P I I I e 9 x V V V V V I V n V V V V V V V @ . . ",
"[ [ / V V V V V V _ I I I I I I I I I I I I I I I I I I I I I I 8 # x V ( Y P Y I I I e 9 x V V V C ! I x M V V V V V V V @ . . ",
"[ [ / C V V V V V ( I I I I I I I I I I I I I I I I I I I I I I w u x V ' P P Y I I I e # x V V H _ _ s u n V V V V V V V @ . . ",
"[ [ / V V V V V V ( I I I I I I I I I I I I I I I I I I I I I I w # x V / T Y P I I I e 9 x V K _ / R e 9 x V V V V V V V @ . . ",
"[ [ ( V V V V V V D 3 7 7 3 3 3 6 3 3 7 6 6 6 6 A I I I I I I I w 9 x V ( Y P Y I I I w 9 x K ] / T I e 9 x V V V V V V V @ . . ",
"[ { / V V V V V V n p 9 9 9 9 9 9 9 9 9 u # 9 # # R I I I I I I t 9 x V ( P Y P I I I d 9 G ] ! T I I 7 9 x V V V V V V V @ . . ",
"[ [ ( V V V V V V V x x x x x x x x x x x x x x x ( I I I I I I w 9 x V F 5 5 7 5 7 5 = q I s 7 7 3 = % 9 x V V V V V V V @ . . ",
"[ [ / V V V V V V V V V V V V V V V V V V V V V V _ I I I I I I w 9 x V n p # 9 # 9 9 9 f g p 9 9 9 9 9 f x V V V V V V V @ . . ",
"[ [ / V V V V V V V V V V V V V V V V V V V V V V / I I I I I I w 9 x V V x x x x x n x x M x x x x x x x V V V V V V V V @ . . ",
"[ [ ( V V V V V V V V V V V V V V V V V V V V V V _ I I I I I I r 9 x V V V V V V V V V V V V V C C V V V V V V V V V V V @ . . ",
"[ [ / V V V V V V V V V V V V V V V V V V V V V V ( I I I I I I e 9 x V V V V V V V V V V V V V V V V V V V V V V V V V V @ . . ",
"[ [ ( V V V V V V V V V V V V V V V V V V V V V V _ I I I I I I e 9 x V V V V V V V V V V V V V V V V V V V V V V V V V V @ . . ",
"[ [ ( V V V V V V V V V V V V V V V V V V V V V V D 3 7 5 3 3 3 % 9 x V V V V V V V V V V V V V V V V V V V V V V V V V V @ . . ",
"[ [ / V V V V V V V V V V V V V V V V V V V V V V n p 9 9 9 9 9 9 p x V V V V V V V V V V V V V V V V V V V V V V V V V V @ . . ",
"[ [ / C V V V V V V V V V V V V V V V V V V V V V V x x x x x x x n M V V V V V V V V V V V V V V V V V V V V V V V V V V @ . . ",
"[ [ / V V V V V V V V V V V V V V V V V V V V V V V V V V V V V V V V V V V V V V V V V V V V V V V V V V V V V V V V V V @ . . ",
"[ [ ( V V V V V V V V V V V V V V V V V V V V V V V V V V V V V V V V V V V V V V V V V V V V V V V V V V V V V V V V V V @ . . ",
"[ { / V V V V V V V V V V V V V V V V V V V V V V V V V V V V V V V V V V V V V V V V V V V V V V V V V V V V V V V V V V @ . . ",
"[ [ ( V V V V V V V V V V V V V V V V V V V V V V V V V V V V V V V V V V V V V V V V V V V V V V V V V V V V V V V V V V @ . . ",
"[ [ / V V V V V V V V V V V V V V V V V V V V V V V V V V V V V V V V V V V V V V V V V V V V V V V V V V V V V V V V V V @ . . ",
"[ [ / V V V V V V V V V V V V V V V V V V V V V V V V V V V V V V V V V V V V V V V V V V V V V V V V V V V V V V V V V V @ . . ",
"[ [ ( V V V V V V V V V V V V V V V V V V V V V V V V V V V V V V V V V V V V V V V V V V V V V V V V V V V V V V V V V V @ . . ",
"[ [ / V V V V V V V V V V V V V V V V V V V V V V V V V V V V V V V V V V V V V V V V V V V V V V V V V V V V V V V V V V @ . . ",
"[ [ ( V V V V V V V V V V V V V V V V V V V V V V V V V V V V V V V V V V V V V V V V V V V V V V V V V V V V V V V V V V @ . . ",
"[ [ ( V V V V V V V V V V V V V V V V V V V V V V V V V V V V V V V V V V V V V V V V V V V V V V V V V V V V V V V V V V @ . . ",
"[ [ / V V V V V V V V V V V V V V V V V V V V V V V V V V V V V V V V V V V V V V V V V V V V V V V V V V V V V V V V V V @ . . ",
"[ { / C V V V V V V V V V V V V V V V V V V V V V V V V V V V V V V V V V V V V V V V V V V V V V V V V V V V V V V V V V @ . . ",
"[ ! g + + + + + + + + + + + + + + + + + + + + + + + + + + + + + + + + + + + + + + + + + + + + + + + + + + + + + + + + + + o . . ",
"! 9 X .                                                                                                                         ",
"9 X   .                                                                                                                         "
};
