/* XPM */
static char *_3b2771cea644caad03acf27e9bd787aGKveTsFJa4oUDuNA[] = {
/* columns rows colors chars-per-pixel */
"64 64 96 2 ",
"   c #7A7F25",
".  c #7D8327",
"X  c #8E942C",
"o  c #9BA230",
"O  c #A0A731",
"+  c #A9B134",
"@  c #B4BC37",
"#  c #CED73F",
"$  c #C6CF41",
"%  c #C5CD42",
"&  c #C1C946",
"*  c #C4CC44",
"=  c #C4CC45",
"-  c #C5CD45",
";  c #C9D240",
":  c #CAD340",
">  c #CCD540",
",  c #C9D245",
"<  c #CFD840",
"1  c #C8D048",
"2  c #CAD249",
"3  c #CBD34A",
"4  c #CDD54A",
"5  c #CFD74B",
"6  c #D1DA40",
"7  c #D2DB40",
"8  c #D3DC41",
"9  c #D4DE41",
"0  c #D5DF42",
"q  c #D5DE47",
"w  c #D0D84B",
"e  c #D0D94C",
"r  c #D3DC4D",
"t  c #D5DE4D",
"y  c #D6E042",
"u  c #D8E242",
"i  c #DAE443",
"p  c #DBE543",
"a  c #DCE644",
"s  c #DEE844",
"d  c #D8E249",
"f  c #DAE34F",
"g  c #DBE450",
"h  c #E0EA45",
"j  c #E1EB45",
"k  c #E3ED46",
"l  c #E4EE46",
"z  c #E7F147",
"x  c #E8F247",
"c  c #E9F347",
"v  c #E9F448",
"b  c #EBF648",
"n  c #ECF749",
"m  c #E8F24E",
"M  c #E9F44F",
"N  c #EEF949",
"B  c #F0FB4A",
"V  c #F3FE4B",
"C  c #F4FF4B",
"Z  c #F4FF4C",
"A  c #F4FF4D",
"S  c #E1EA52",
"D  c #E3EC52",
"F  c #E4ED53",
"G  c #E6EF53",
"H  c #E9F254",
"J  c #EEF757",
"K  c #EFF957",
"L  c #F4FF50",
"P  c #F0FA57",
"I  c #F4FE57",
"U  c #F2FC58",
"Y  c #F3FD58",
"T  c #F5FF59",
"R  c #F4FE5B",
"E  c #F5FF5D",
"W  c #F5FF5E",
"Q  c #F5FE61",
"!  c #F6FF62",
"~  c #F5FE65",
"^  c #F6FF64",
"/  c #F6FF6A",
"(  c #F6FF6B",
")  c #F6FF6C",
"_  c #F6FE6D",
"`  c #F6FF71",
"'  c #F7FF72",
"]  c #F7FF75",
"[  c #F7FF77",
"{  c #F7FF78",
"}  c #F7FF7F",
"|  c #F7FF82",
" . c #F7FF83",
".. c #F8FF8B",
"X. c #F8FF8F",
"o. c #F8FF94",
/* pixels */
"o...| |  . . . . . . . . . . . .|  . . . . . . . . . . .| |  . . . . . . . . . .| |  . . . . . . . . . .| |  . . . . . . .| ` z ",
"| X.o. . .|  . . . . .|  . . . .| |  . . . . .|  . . . .| |  . . . . .|  . . . .| |  . . . . .|  . . . .| |  . . . . .|  .{ n O ",
"[ | } _ ` ` [ ` { ` ` ` [ ` { ` ' ' ] _ { ` ` ` [ ` { ` ` [ ` ` { ` ` ` [ ` { ` ` [ ` ` { ` ` ` [ ` { ` ` [ ` ` { ` ` ` ` V O . ",
"[ [ / C C C V C V C Z Z V C C V C Z Z C C C Z Z V C C C C Z Z C V V Z C V C C V C Z Z C V V Z C V C C V C Z Z C V V Z C Z @ . . ",
"[ [ / Z C C C C C C C C C C C C C C C C C C C C C C C C C C C C C C C C C C C C C C C C C C C C C C C C C C C C C C C C A @ . . ",
"[ [ / C C C C C C C C C C C C C C C C C C C C C C C C C C C C C C C C C C C C C C C C C C C C C C C C C C C C C C C C C V @ . . ",
"[ [ / C C C C C C C C C C C C C C C C C C C C C C C C C C C C C C C C C C C C C C C C C C C C C C C C C C C C C C C C C V @ . . ",
"[ [ _ C C C C C C C C C C C C C C C C C C C C C C C C C C C C C C C C C C C C C C C C C C C C C C C C C C C C C C C C C C @ . . ",
"[ [ / C C C C C C C C C C C C C C C C C C C C C C C C C C C C C C C C C C C C C C C C C C C C C C C C C C C C C C C C C C @ . . ",
"[ [ _ C C C C C C C C C C C C C C C C C C C C C C C C C C C C C C C C C C C C C C C C C C C C C C C C C C C C C C C C C C @ . . ",
"[ [ / C C C C C C C C C C C C C C C C C C C C C C C C C C C C C C C C C C C C C C C C C C C C C C C C C C C C C C C C C C @ . . ",
"[ [ / C C C C C C C C C C C C C C C C C C C C C C C C C C C C C C C C C C C C C C C C C C C C C C C C C C C C C C C C C C @ . . ",
"[ [ / C C C C C C C C C C C C C C C C C C C C C C C C C C C C C C C C C C C C C C C C C C C C C C C C C C C C C C C C C C @ . . ",
"[ [ / C C C C C C C C C C C C C C C C C C C C C C C C C C C C C C C C C C C C C C C C C C C C C C C C C C C C C C C C C C @ . . ",
"[ [ _ C C C C C C C C C C C C C C C C C C C C C C C C C C C C C C C C C C C C C C C C C C C C C C C C C C C C C C C C C C @ . . ",
"[ [ / C C C C C C C C C C C C C C C C C C C C C C C C C C C C C C C C C C C C C C C C C C C C C C C C C C C C C C C C C C @ . . ",
"[ [ / Z C C C C C C C C C C C C C C C C C C C C C C C C C C C C C C C C C C C C C C Z Z C C C C C C C C C C C C C C C C C @ . . ",
"[ [ / C C C C C C C C C C C C C C C C C C C C Q ] ' ' ' ` / R H B C C C ] ' ' ' ' _ U U ] ' ' ' ` ` ` R b B C C C C C C C @ . . ",
"[ [ / C C C C C C C C C C C C C C C C C C C E ` Q R R I J 5 , p x B C C ( R R I H 5 > a ^ R T T R I R 5 s b C C C C C C C @ . . ",
"[ [ _ C C C C C C C C C C C C C C C C C C R ] Q I R I J r - # p b C C C _ R R H w % # j ( R T T R R R 5 9 x C C C C C C C @ . . ",
"[ [ / C C C C C C C C C C C C C C C C C R ' ^ E R I K t = < p x B C C C _ R H w = # j n _ T T T I T I 5 9 x C C C C C C C @ . . ",
"[ { / C C C C C C C C C C C C C C C C I ' Q R R R J f = # p x C C C C C _ H 5 % # j c C _ T T T T T R t 9 c C C C C C C C @ . . ",
"[ [ _ C C C C C C C C C C C C C C C I ' ! I I R P f = # u x B C C C C C ~ 5 % # s n C C _ T T T T T T w 9 x C C C C C C C @ . . ",
"[ [ / C C C C C C C C C C C C C C L ' ^ T R R I f = > u x C C C C C C C U > # j x C C C ( T T T T T T w 9 x C C C C C C C @ . . ",
"[ [ / Z C C C C C C C C C C C C L _ ( R E Y P f - > u z B C C C C C C C m s s x C C C C ( R T T R R H 3 9 x C C C C C C C @ . . ",
"[ [ / C C C C C C C C C C C C L ' ( T I E U S - # 9 z B C C C C C C C C n x n C C C C Q ( R T T I H 5 % 9 x C C C C C C C @ . . ",
"[ [ _ C C C C C C C C C Z C A _ ( T T T U S - # 9 l B Z C C C C C C C C C N C C C C ! ' ! T T T H 5 $ 7 j B C C C C C C C @ . . ",
"[ [ / C C C C C C C C C V A _ / E T T R S 1 ; 9 x B C Z C C C C C C C C C C C C C ! ' E I R T H 5 % # h x C C C C C C C C @ . . ",
"[ [ / Z C C C C C C C C Z / _ E T T R F 1 # 9 l B C C C C C C C C C C C C C C C ! ' ! T E U H 5 $ # h b C C C C C C C C C @ . . ",
"[ [ / C C C C C C C V Z / _ E I T T F 4 $ # l B C C C C C C C C C C C C C C C E ' E I R E H 5 % < j b C C C C C C C C C C @ . . ",
"[ [ / C C C C C C C C / / E R R T G 4 ; 8 l B B C C C C C C C C C C C C Z Z Q ' ! T R R G 5 # > h x C C C C C C C C C C C @ . . ",
"[ [ _ C C C C C C C ~ _ Q E R I H 5 $ # j n C C C C C C C C C C C C C C C Q _ Q T I I H w $ # h c C C C C C C C C C C C C @ . . ",
"] { / C C C C C Z E ' E T T T T I d # j b C C C C C C C C C C C C C C C Q ` Q R T T T t $ # p n C C C C C C C C C C C C C @ . . ",
"{ ] _ C C C C C C ' ! T T T T T R E ( ' ' ' ' ' ' ' ' ' ' ' ' ' R n C C ` Q R I T T T w # h n C C C C C C C C C C C C C C @ . . ",
"{ ] / Z C C C C C _ T T T T T T R I T T I R T T R I T T R R T T 5 p n C ( T R R T T I w # x C C C C C I B C C C C C C C C @ . . ",
"{ { / C C C C C C _ T T T T T T R R T T T I T T R R T T I I T T w 9 x C _ T T I T T T w u x C C C C ( U x B C C C C C C C @ . . ",
"] ] / Z C C C C C _ R I I R R T T T T T R I R T T T T T T T T T w 9 c C _ T T T I R I w 9 x Z Z C _ _ t s n C C C C C C C @ . . ",
"{ { / Z C C C C C _ T R R E R I T T T T I R T T T T T T T T T T t 9 c C _ T T T R R R w 9 x Z Z ' ( E t # x C C C C C C C @ . . ",
"{ ] _ C C C C C Z J 5 ; 5 ; 3 5 3 5 5 , 5 3 3 3 G I T T T T T T 5 # c C _ T T T R I R t 9 x I ' / R R w 9 x C C C C C C C @ . . ",
"{ { / C C C C C C n a 9 9 u # # # 9 9 # # 0 # 8 9 T T T T T T T t 0 c C _ T T T I R R g 9 J ' ~ R R I w 9 x C C C C C C C @ . . ",
"] { _ C C C C C C C b x x x c c b x x x x c c c c _ T T T T T T 5 8 x C J 3 , 3 3 3 3 - q R f 4 3 4 4 & 9 x C C C C C C C @ . . ",
"] { / C C C C C C C C C C C C C C C C C C C C C C _ T T T T T T w 9 x C v s 8 8 8 8 8 8 u j s 9 # 9 # 9 u n C C C C C C C @ . . ",
"{ { / C C C C C C C C C C C C C C C C C C C C C C _ R R T T T T r 9 x C C x x x x x x v x B x x b x x x n B C C C C C C C @ . . ",
"{ ] _ C C C C C C C C C C C C C C C C C C C C C C ( T I T T T T 4 9 x C C C C C C C C C C C C C C C C C C C C C C C C C C @ . . ",
"] { / C C C C C C C C C C C C C C C C C C C C C C ( R R T T R R r 8 x C C C C C C C C C C C C C C C C C C C C C C C C C C @ . . ",
"{ ] _ C C C C C C C C C C C C C C C C C C C C C C ( R I T T I R w 8 x C C C C C C C C C C C C C C C C C C C C C C C C C C @ . . ",
"{ ] / Z C C C C C C C C C C C C C C C C C C C C C K , w 3 3 4 , & 8 x C C C C C C C C C C C C C C C C C C C C C C C C C C @ . . ",
"{ { / C C C C C C C C C C C C C C C C C C C C C C b s # u # u # 8 a n C C C C C C C C C C C C C C C C C C C C C C C C C C @ . . ",
"] ] / Z C C C C C C C C C C C C C C C C C C C C C C b x x x x x x b B C C C C C C C C C C C C C C C C C C C C C C C C C C @ . . ",
"{ { / Z C C C C C C C C C C C C C C C C C C C C C C C C C C C C C C C C C C C C C C C C C C C C C C C C C C C C C C C C C @ . . ",
"{ ] _ C C C C C C C C C C C C C C C C C C C C C C C C C C C C C C C C C C C C C C C C C C C C C C C C C C C C C C C C C C @ . . ",
"{ { / C C C C C C C C C C C C C C C C C C C C C C C C C C C C C C C C C C C C C C C C C C C C C C C C C C C C C C C C C C @ . . ",
"] { _ C C C C C C C C C C C C C C C C C C C C C C C C C C C C C C C C C C C C C C C C C C C C C C C C C C C C C C C C C C @ . . ",
"] { / C C C C C C C C C C C C C C C C C C C C C C C C C C C C C C C C C C C C C C C C C C C C C C C C C C C C C C C C C C @ . . ",
"{ { / C C C C C C C C C C C C C C C C C C C C C C C C C C C C C C C C C C C C C C C C C C C C C C C C C C C C C C C C C C @ . . ",
"{ ] _ C C C C C C C C C C C C C C C C C C C C C C C C C C C C C C C C C C C C C C C C C C C C C C C C C C C C C C C C C C @ . . ",
"] { / C C C C C C C C C C C C C C C C C C C C C C C C C C C C C C C C C C C C C C C C C C C C C C C C C C C C C C C C C C @ . . ",
"{ ] _ C C C C C C C C C C C C C C C C C C C C C C C C C C C C C C C C C C C C C C C C C C C C C C C C C C C C C C C C C C @ . . ",
"{ ] / Z C C C C C C C C C C C C C C C C C C C C C C C C C C C C C C C C C C C C C C C C C C C C C C C C C C C C C C C C C @ . . ",
"{ { / C C C C C C C C C C C C C C C C C C C C C C C C C C C C C C C C C C C C C C C C C C C C C C C C C C C C C C C C C C @ . . ",
"] { / Z C C C C C C C C C C C C C C C C C C C C C C C C C C C C C C C C C C C C C C C C C C C C C C C C C C C C C C C C C @ . . ",
"{ ~ l + + + + + + + + + + + + + + + + + + + + + + + + + + + + + + + + + + + + + + + + + + + + + + + + + + + + + + + + + + o . . ",
"~ u X                                                                                                                           ",
"9 X                                                                                                                             "
};
