/* XPM */
static char *ea881048ad704cd6e98241ec9852926fbihRs4LWlQrRGQtj[] = {
/* columns rows colors chars-per-pixel */
"64 64 178 2 ",
"   c #3B1A1A",
".  c #202020",
"X  c #2C2C2C",
"o  c #342525",
"O  c gray22",
"+  c #4A1919",
"@  c #501E1E",
"#  c #700F0F",
"$  c #7C0C0C",
"%  c #611D1D",
"&  c #721E1E",
"*  c #432424",
"=  c #4C2E2E",
"-  c #5F2727",
";  c #423333",
":  c #5C3535",
">  c #553C3C",
",  c #642F2F",
"<  c #772E2E",
"1  c #683737",
"2  c #633C3C",
"3  c #773636",
"4  c #4F4242",
"5  c #484848",
"6  c #5F4646",
"7  c #5A4D4D",
"8  c gray33",
"9  c #624646",
"0  c #6C4545",
"q  c #614A4A",
"w  c #685858",
"e  c #7F5656",
"r  c #745D5D",
"t  c #7E5C5C",
"y  c #646464",
"u  c #7A6C6C",
"i  c gray44",
"p  c #7D7777",
"a  c #7C7C7C",
"s  c #830A0A",
"d  c #8A0909",
"f  c #920B0B",
"g  c #9A0C0C",
"h  c #831212",
"j  c #8C1212",
"k  c #871B1B",
"l  c #951313",
"z  c #9A1313",
"x  c #921D1D",
"c  c #9A1A1A",
"v  c #AC0B0B",
"b  c #B60B0B",
"n  c #B90E0E",
"m  c #A31010",
"M  c #A91313",
"N  c #AD1C1C",
"B  c #BD1212",
"V  c #BC1B1B",
"C  c #882F2F",
"Z  c #962424",
"A  c #9B2222",
"S  c #9C2A2A",
"D  c #873838",
"F  c #953D3D",
"G  c #A52424",
"H  c #AC2525",
"J  c #A62D2D",
"K  c #AA2929",
"L  c #BF2424",
"P  c #B12B2B",
"I  c #BC2828",
"U  c #B63333",
"Y  c #BE3838",
"T  c #C51A1A",
"R  c #C42222",
"E  c #CC2121",
"W  c #C32C2C",
"Q  c #CD2C2C",
"!  c #D02525",
"~  c #D42929",
"^  c #D92E2E",
"/  c #C53333",
"(  c #CC3232",
")  c #C43C3C",
"_  c #CE3B3B",
"`  c #D23535",
"'  c #DD3232",
"]  c #E23737",
"[  c #E53C3C",
"{  c #EA3F3F",
"}  c #824444",
"|  c #884848",
" . c #8A4F4F",
".. c #9A4343",
"X. c #855454",
"o. c #8B5454",
"O. c #BD5757",
"+. c #896262",
"@. c #916A6A",
"#. c #8A7575",
"$. c #9B7676",
"%. c #987A7A",
"&. c #A46C6C",
"*. c #B36A6A",
"=. c #A27676",
"-. c #AD7B7B",
";. c #B27C7C",
":. c #B87C7C",
">. c #C34444",
",. c #CD4343",
"<. c #CB4C4C",
"1. c #D64444",
"2. c #DB4242",
"3. c #D24949",
"4. c #DD4C4C",
"5. c #C45757",
"6. c #CC5151",
"7. c #D35454",
"8. c #D95858",
"9. c #E24444",
"0. c #EC4646",
"q. c #E44E4E",
"w. c #ED4A4A",
"e. c #F04545",
"r. c #F34848",
"t. c #F94E4E",
"y. c #E15454",
"u. c #E65A5A",
"i. c #EB5B5B",
"p. c #F95050",
"a. c #F55F5F",
"s. c #CC6D6D",
"d. c #D96464",
"f. c #DF6C6C",
"g. c #C37373",
"h. c #D97C7C",
"j. c #E26464",
"k. c #E56A6A",
"l. c #EC6D6D",
"z. c #FA6161",
"x. c #F56A6A",
"c. c #ED7272",
"v. c #E77B7B",
"b. c #F07575",
"n. c #FA7474",
"m. c #F47A7A",
"M. c #8D8787",
"N. c gray55",
"B. c #938787",
"V. c #9E9595",
"C. c #989898",
"Z. c #AC8484",
"A. c #A28D8D",
"S. c #A49393",
"D. c #AE9090",
"F. c #A59B9B",
"G. c #BB9B9B",
"H. c gray66",
"J. c #B4A6A6",
"K. c #B4B4B4",
"L. c #CA8383",
"P. c #C88F8F",
"I. c #D68888",
"U. c #C49393",
"Y. c #D49595",
"T. c #E88B8B",
"R. c #C4A5A5",
"E. c #CAB8B8",
"W. c #E5AEAE",
"Q. c #E8B8B8",
"!. c #C0C0C0",
"~. c #CBC0C0",
"^. c #D3CBCB",
"/. c #D0D0D0",
"(. c gainsboro",
"). c #E2D9D9",
"_. c #EEDFDF",
"`. c #ECECEC",
/* pixels */
"X X X X X X X X X X X X X X X X X X X X X X X X X X X X X X X X X X X X X X X X X X X X X X X X X X X X X X X X X X X X X X X X ",
"8 8 8 8 8 8 8 8 8 8 5 (.(.(.(.(.(.`.(.(.(.(.(.(.(.(.(.. O N.H.!././././././.!.!.H.N.8 . 5 5 5 5 5 5 5 5 5 5 8 8 8 8 8 8 8 8 8 8 ",
"8 8 8 8 8 8 8 8 8 8 5 (./././.!././././././.!./././.N.. O N.!.K.N.H.N.N.N.N.N.N.H.8 O . O i N.N.N.N.N.N.a i y 5 5 5 5 5 5 5 5 5 ",
"N.N.N.N.N.N.N.N.. 8 5 (./.!.K./.K./.K.K./.K.!.K./.N.y . O H.(.H.N.H.N.H.N.H.N.H.N.8 O . O N.(.(.(.(.(.(.!.K.H.N.N.N.N.N.N.N.N.N.",
"/.(././.K.H.N.N.. 8 5 (./.H.H.H.H.N.H.H.H.H.C.H.H.a 8 . O N.!.N.N.N.H.H.H.H.N.N.i 8 O . O N.(.(.!.!.!./.(.(.(.(.(./././././././.",
"H.H.H.H.H.H.a i . 8 5 `.!.C.H.H.H.H.H.H.C.H.N.H.H.i 8 . O 5 H.N.H.H.N.N.H.N.H.i 8 8 O . O N.(.K.H.N.H.N.H.H.H.N.N.H.N.H.N.H.N.C.",
"K.C.H.C.H.N.a i . 5 5 `./.H.N.H.C.H.N.C.C.C.N.C.H.N.8 . O 5 a N.N.H.N.H.H.N.H.i O O O . O N.(.K.N.H.N.C.N.N.N.H.N.N.C.C.H.C.N.H.",
"K.K.a K.N.C.y 8 . O 5 `./.N.C.N.H.H.H.N.a N.C.H.N.y 8 . O 5 5 N.H.H.H.N.N.N.H.i O O O X O N.(.K.H.N.C.a H.C.a N.H.N.H.H.N.a H.C.",
"C.H.H.C.C.i 5 5 . X 5 !.!.H.C.H.N.H.N.C.N.C.N.N.H.i 8 . . 5 8 5 a O O O O O O O O O . X O a (.(.N.H.N.a C.a C.N.H.N.C.a H.H.a N.",
"N.N.N.N.i 8 5 5 . X 5 H.`.H.H.H.N.N.C.N.N.N.N.H.N.8 a X . O 5 O O O O O O O O O . . . 5 5 5 !./.N.N.N.C.C.C.C.N.N.H.N.H.H.N.H.N.",
"i i i i 8 5 O O . X 5 N.(.N.H.N.C.a N.N.H.N.H.N.H.i 8 X . O 5 O X X . . . . . X X X X 5 8 5 !.K.N.H.N.H.N.N.N.i i y y y y y y y ",
"8 8 5 5 5 . . . . X 5 i (.H.N.C.a a a H.C.N.N.a N.i y O . O 5 5 5 5 i a N.H.H.H.H.C.i O 8 5 K.N.i i y y y 8 8 8 8 5 5 5 5 5 5 5 ",
". . . . . X X X X O 8 5 (./.N.N.N.C.C.N.N.H.a N.H.N.8 O . O 5 i H.H.(.(.`.(././.C.i 8 . 8 5 N.i y y 8 5 5 5 O O O O O X X X X X ",
"X X X X X X X X X O 8 5 H./.N.H.N.a N.H.N.N.C.N.N.i 8 O . X O H.!.(./.K.N.H.N.H.N.i O . O O O O O O O O O O O X X . . . . . . . ",
"O O O O O O O O O O 8 5 N./.H.N.H.C.N.a N.a N.H.N.8 8 O . X 5 H.(.!.H.N.N.N.N.N.N.8 O . O X X X X X X X X X X O O O O O O O O O ",
"8 5 O O O O O O O O 8 5 i !.N.H.C.N.H.C.H.N.H.N.H.8 i 5 . X 5 H.`.H.N.N.H.N.H.N.H.8 O . O 5 8 8 8 8 . 5 5 5 5 5 5 5 5 5 5 5 5 5 ",
"C.C.C.C.C.C.C.C.C.X + V _ i.i.q.q.f.V.C.a N.%.Q 4.2._ _ I 6.5 H.`.N.N.H.H.N.H.*.5.( / W / 4.L.W.(.8 5 8 a C.C.C.C.C.C.C.C.C.C.C.",
"/./././././.K.K.i O   k T ^ { ^ ' u.=.N.N.N.V.A E ^ ~ T n 6.5 H./.H.H.N.B.s.' [ ' T B b B 0.a.i.l.D 5 a !.(.(.(.(.(.(.(.(.(.(.(.",
"H.C.N.H.N.H.H.i i O   j T E ' ] ' u.I.N.H.i #.l T ~ T T b 6.5 H./.H.N.u U R E T T T B b B r.{ ] _ >.5.V.(.^.K.K.K.K.K.K.K.K.K.K.",
"H.N.H.N.H.N.N.i i O   j T T ' ' Q ` d.u 8 8 r j ! T T n b 6.X H.N.i M.J M B B B B B B b E r.[ ^ ' V ,.h.(.K.H.C.H.C.H.N.C.N.C.C.",
"H.C.N.H.N.H.H.i 8 O   j T T E T T R 7.X.5 5 = s b b b b b 6.X N.i O - m b b b b n b b b E r.] ] ^ b T k.Q.H.N.C.N.C.N.C.a a N.N.",
"H.N.H.N.H.N.N.i 8 O   j T T n n n n / ... .   s b b b b b 6.X O 8 O $ v b b n n B V b g G 1.] ] ^ b T q.T.N.H.C.H.C.H.N.C.N.C.C.",
"N.H.a a N.N.H.i 8 O + s T T T B n b V 6.o .   s T T T T T 7.5 N.N.B.G ' ' ^ ' ~ T L C y Z.Y ] ^ ^ b T ' c.J.N.C.N.C.N.C.a a N.N.",
"N.N.a a N.H.N.y 5 O   s ^ t.r.r.r.{ [ k.Z.y = j T ~ ] ] 0.c./.(.(.R.U r.r.r.e.' E ) : a E.J ] ] ! b T ! c.G.C.N.H.N.H.N.a a N.C.",
"N.N.H.H.N.N.N.y 5 O   s r.{ ] ^ ' ' ] y.L.O 9 j ~ r.t.t.r.c.K.!.!.D.U { { { { E T <.> N.E.S ' ^ E b T ~ l.Z.H.C.N.C.N.N.H.N.H.N.",
"C.H.N.N.H.N.i 8 O O   s r.] ^ ' ] ] ' 9.b.. 9 j ' t.{ ^ ] k.H.C.N.$.H [ ' ^ ^ E T <.> N.).Z ^ ] T b T T u.&.y 8 8 8 y y i a N.N.",
"y y y y y 8 5 O O O   j r.] ] ] ^ ] ^ [ 8.1 2 j ' t.] ] ] k.a H.H.+.H ' ] ^ ] T T >.> N.).Z ] ' T b T n ) } 5 5 5 5 5 5 5 8 8 8 ",
"8 5 5 O O O . . . . * s r.^ ] ^ ] [ ^ ~ 1.F 2 j ' t.^ ] ^ k.H.N.N.X.H ' ' ^ ' T T <.> N.).Z ] ^ T b T B ) 3 . . . . . . . O O 5 ",
". . . . . . X X X 5 > j r.] ' ^ ] ^ ] ~ ` O., g ' t.' ^ ] k.N.a N.X.H ^ ^ ] ^ T T >.> N.).Z ] ^ T n T T _ } O O O O X X X . . . ",
"5 y y i N.C.N.N.N.N.> s r.] ~ ' ^ ] ^ ~ T ( & M ' t.] ^ ^ k.a N.a +.P ~ ^ ^ [ T T <.> N.).x ] ] T n T T 3. .8 8 8 8 8 8 8 O O O ",
"y N.K.(.(.(./././.H.r s r.] ] ^ ~ ^ ] ^ ! W M V ^ r.{ ' ^ l.N.H.a e H ~ ^ ] ^ T B <.> N.^.x ^ ] T b T ] x.W.K.N.y 8 5 5 5 5 5 8 ",
"y K././.!.K.H.H.C.H.> s t.' ' ] ~ ^ ] ' ! T n T ~ e.{ ] ^ k.a N.a e P ^ ] ^ ^ T B <.> N.^.Z ' ^ T b T e.8.:.K.(.(.(.(.(.(.C.O 8 ",
"y (.K.H.H.N.H.C.H.N.e $ t.' ] ' [ ' ' ' E T b B T { t.] ' l.N.H.N.$.N ~ ^ ] E T B <.> N.^.x ] ^ T b T r.y.:.H.H.N.N.H.N.N.a O 8 ",
"y (.K.C.N.H.N.H.N.H.w s t.' ^ ' [ ' ' ^ E T b n T ] t.] [ l.N.N.a +.G ~ ] ^ ~ T n <.q N.~.Z [ ^ T n T r.u.P.N.N.H.H.N.H.N.y O 5 ",
"y (.H.C.H.N.H.H.p H.6 s r.] ] ] ' ` ,.( E T b n T ' r.{ [ k.H.N.N.@.H ] ^ ] E T b <.q N.~.Z ' [ T b B r.u.:.H.H.N.N.H.N.H.y O 5 ",
"y (.K.H.N.N.H.C.H.N.6 s r.{ ~ ' ~ q.g.P E T b b T ~ e.0.' k.a C.N.+.H ^ ' ' T B b <.q N.~.x ' T T b T { i.U.H.N.H.N.N.H.H.8 O 5 ",
"y (.K.N.H.H.N.H.N.H.q s { r.^ ' [ 8.-.x E T n b T T { r.] k.H.N.H.+.P ^ ^ E T B b <.q a F.k T T B B T ] u.;.H.H.N.H.N.N.H.8 O O ",
"y (.K.H.H.N.H.C.H.N.6 s [ r.~ ] ^ u.N.C R T n b n T ^ { ] k.p y y 1 z T B B B B b 7.q 8 ; s n B T T b E 3. .8 8 8 8 8 8 8 8 O O ",
"y (.K.N.H.H.N.H.a H.6 $ ' r.' ~ ] c.N. .N T b b n T T ^ ^ d.8 5 O + f b b b b b b <.q 8 4 h T T T T T b ) 3 . . . . . . . . . O ",
"y (.K.N.N.C.H.N.H.M.6 s ~ r.] ' ] k.N.%.c T b b n T T B B 6.X . . @ f n n n n n n 7.q 8 7 s T T T T T T ,. .O O O O O O O O O O ",
"y (.K.H.H.N.C.H.C.H.9 s T t.^ ] ^ k.H.M.h V b b n T T T B 7.O O O : l T T T T T T 7.7 8 9 x ~ ~ ~ ~ ~ ~ 8.=.a a a a a a a a O 8 ",
"y (.K.N.N.H.N.H.N.i 9 s T t.] ^ ~ k.N.H.< N n b n B T ~ ~ j.a a a t c ~ ~ ~ ~ ~ ~ u.S.C.A.P [ { { { { { x.R.!.!.!.!.!.!.!.a O 8 ",
"y /.K.H.H.C.H.N.H.8   s T t.] ^ ] k.N.N.0 l n b b B ~ { { b.!.!.!.J.S [ { { { { { x.W.(.Y.2.t.t.t.t.t.p.n._.`.`.(.(././.C.y X 5 ",
"y /.K.C.H.N.H.H.N.8   s T r.^ ] ~ k.N.H.w h B b b b ~ { e.m.`.`.`.`..._ t.t.r.t.t.a.n.z.w.e.r.r.{ [ { w.v.H.!.!.K.!.!.K.a 8 X 5 ",
"y !.K.H.N.H.N.N.N.8   j T r.] ] ^ l.N.N.y & m b b b ~ { 0.c.!.!.!.!.A.K [ 9.] { { { [ [ ] ' ' ^ ^ ] ^ q.;.N.N.H.N.H.N.H.i 8 X O ",
"5 K.N.N.H.N.i i i 8   s T e.^ ^ ] k.H.N.i 1 g b b b T e.r.c.N.N.N.N.N.D P ^ ] ] ' ^ ' ] ] ] ' ~ ' ^ 9.d.C.N.H.N.H.H.H.N.i 8 X O ",
"5 K.H.H.H.N.8 8 8 . * s B [ [ ^ ^ l.N.N.i 6 s b b b T 0.r.c.N.C.N.H.N.F.C K ( ^ ^ ' [ [ ^ ' ^ ' ` ^ ) B.C.C.N.H.N.H.N.H.i 8 X O ",
"5 M.a a 8 8 8 8 8 . * s T ' ' ' ^ k.N.i y 8 # m b b b [ r.m.H.H.N.N.N.N.p o.A K L Q ^ ' ' ~ ^ W Q *.N.H.N.a a N.a C.N.C.i 8 . O ",
"5 O . . . 8 8 8 8 . = h l A c c c Q y y 8 8 % s d d d H U p.N.N.H.N.H.N.N.H.N.o.| A G G K H *.&.N.H.N.N.a N.N.N.H.N.a a i 8 . O ",
"8 8 8 5 O . . X . X O 5 O O O O O O O O O O O . . . X N./.K.K.N.N.H.N.H.a N.N.C.p C.N.C.a H.N.N.a N.N.N.N.H.N.a N.C.a a i 8 . O ",
"5 5 5 5 5 5 5 X X X O 5 O O . . . . . . . . . . . . X N.C.i i i i i i i H.N.H.H.N.N.a N.N.N.a N.N.H.N.H.N.N.H.N.N.N.N.C.i 8 . O ",
"5 a H.H.H.H.C.N.y 5 5 8 O O X X X X X X X X X X X X O 8 5 O O X X X X X 8 i i a N.a a a a a a a a a a a a a a a a a a a y 8 . O ",
"5 H.K.(.(.(.(.(.!.H.H.N.i y 8 5 O O O O O O O O O O 5 8 5 5 O O O O O O X 5 8 8 8 8 8 8 8 8 8 8 8 8 8 8 8 8 8 8 8 8 8 8 8 . X O ",
"5 H.(.H.H.N.!./.(.(.(.!.H.H.H.H.H.H.H.H.N.N.N.a a i y y 8 8 5 5 5 5 5 O O X X X X X X X X X X X X X . . . . . . . . . . . X O 5 ",
"5 H.(.H.H.H.K.K.N.H.!.(.(.(.(.(.(.(.(.(.(.(.(././.!.!.H.H.H.H.H.N.5 8 5 O O O O O O O O O X X X X X X X X X X X X X X X O O 5 5 ",
"5 H.(.H.N.H.a a H.C.N.a H.N.H.N.H.N.H.H.N.H.N.H.H.K.!.(.(.(./.!.a O 5 8 5 5 5 O O O O O O O O O O O O O O O O O O O O O 5 5 5 8 ",
"5 H./.H.H.H.C.H.N.C.N.C.H.N.N.H.a a N.H.a N.N.N.H.N.H.N.H.H.H.a y . O 8 5 H.(.(.H.a 5 5 5 8 8 8 5 5 5 5 5 5 5 5 5 5 5 5 8 8 8 8 ",
"5 H.!.H.N.H.a a C.H.N.H.H.C.N.a H.a N.a C.N.H.N.H.N.H.N.H.H.H.y 8 . O 5 5 (.H.H.(.(.(.(.K.8 8 5 K.(.(.(.(.(.(.(./.K.K.C.M.5 5 8 ",
"5 H.N.y y y y y y y y y y y y y y y y y y y y y y y y y y y y 8 8 O . O 5 (.K.K.K.K.K.K.K.y 8 a (.H.H.H.N.H.N.H.C.H.N.H.(.C.. 8 ",
"5 N.y O O O O O O O O O O O O O O O O O O O O O O O O O O O O O O O . X 5 K.H.K.K.C.y C.N.y 5 K.H.N.H.N.H.H.H.N.H.N.H.N.H.8 . 8 ",
"5 O . . . . . . . . . . . . . . . . . . . . . . . . . . . . . . . . . X 5 O 5 O 8 y y y y y 5 (.H.C.C.H.H.C.C.H.C.H.H.N.N.8 . 8 ",
"8 5 O O O X X X X X X X X X X X X X X X X X X X X X X X X X X X X X X X O 8 8 O O . . . . . O 8 8 8 8 8 8 8 8 8 8 8 8 8 8 8 . 8 ",
"8 8 8 8 5 5 5 5 5 5 5 5 O O O O O O O O O O O O O O O O O O O O O O O O O 8 8 8 8 O O O O O O 8 8 . . . . . . . . . . . . . . 8 ",
"O O O O O O O O O O O O O O O O O O O O O O O O O O O O O O O O O O O O O O O O O O O O O O O O O O O O O O O O O O O O O O O O "
};
