/* XPM */
static char *_8039af5267d49b892dd376d597a39bfThhxEo2OLjDHFHFJ[] = {
/* columns rows colors chars-per-pixel */
"64 64 191 2 ",
"   c #1F361C",
".  c #202020",
"X  c #2C2C2C",
"o  c #263324",
"O  c #313D2F",
"+  c gray22",
"@  c #1E4A16",
"#  c #1D5511",
"$  c #254F1E",
"%  c #1D6A0B",
"&  c #1E7B08",
"*  c #226E0F",
"=  c #28671A",
"-  c #2A7718",
";  c #2F4F29",
":  c #324C2E",
">  c #3B5934",
",  c #35692C",
"<  c #3D6B33",
"1  c #42523F",
"2  c #42633C",
"3  c #446B3E",
"4  c #427736",
"5  c #437439",
"6  c #447838",
"7  c #484848",
"8  c #495A46",
"9  c #495F46",
"0  c #545454",
"q  c #4A6246",
"w  c #4B6745",
"e  c #56754F",
"r  c #556653",
"t  c #596B55",
"y  c #646464",
"u  c #6B7E68",
"i  c gray44",
"p  c #7C7C7C",
"a  c #24850B",
"s  c #258C0B",
"d  c #288F0E",
"f  c #28980B",
"g  c #278410",
"h  c #298313",
"j  c #2A8C12",
"k  c #31861C",
"l  c #338B1E",
"z  c #2F9515",
"x  c #2D9913",
"c  c #319C16",
"v  c #33931C",
"b  c #28A20A",
"n  c #2DB60B",
"m  c #31B90E",
"M  c #2FA610",
"N  c #31AE11",
"B  c #34A419",
"V  c #36AB19",
"C  c #35BD12",
"Z  c #37B218",
"A  c #3BBC1B",
"S  c #3A9524",
"D  c #3A9D22",
"F  c #3CA523",
"G  c #3FB621",
"H  c #408D2F",
"J  c #449B2E",
"K  c #448336",
"L  c #478739",
"P  c #498B3B",
"I  c #4E953D",
"U  c #519C3F",
"Y  c #40AC25",
"T  c #43A52B",
"R  c #43A72A",
"E  c #42B226",
"W  c #44BD26",
"Q  c #49B12F",
"!  c #46BC29",
"~  c #4CAD33",
"^  c #51AE3E",
"/  c #4DB434",
"(  c #4DBD33",
")  c #51B736",
"_  c #52BB37",
"`  c #3DC61B",
"'  c #43CB21",
"]  c #4AC12C",
"[  c #4BCC2B",
"{  c #47D025",
"}  c #4CD42A",
"|  c #50D92E",
" . c #4FC530",
".. c #51C534",
"X. c #52CD33",
"o. c #55C43A",
"O. c #58C53D",
"+. c #56CA39",
"@. c #59CE3C",
"#. c #54DD32",
"$. c #58D838",
"%. c #5BDC3B",
"&. c #5AE237",
"*. c #5DE63B",
"=. c #61EA3F",
"-. c #548948",
";. c #558B4B",
":. c #5D9451",
">. c #639259",
",. c #5AA946",
"<. c #5BB145",
"1. c #61B04E",
"2. c #61A352",
"3. c #69B856",
"4. c #688B62",
"5. c #718C6D",
"6. c #6D9664",
"7. c #7A8F77",
"8. c #6CAF60",
"9. c #76AA6D",
"0. c #7BAF71",
"q. c #5CC742",
"w. c #5ECB41",
"e. c #5CD140",
"r. c #61C449",
"t. c #64CA4A",
"y. c #69CE4F",
"u. c #61DD42",
"i. c #64D249",
"p. c #69DE4C",
"a. c #71CE5D",
"s. c #6DD554",
"d. c #74D45E",
"f. c #65E444",
"g. c #6CE34E",
"h. c #69EA48",
"j. c #67F045",
"k. c #6BF348",
"l. c #6FE252",
"z. c #72E255",
"x. c #75E25A",
"c. c #76E959",
"v. c #7AE95E",
"b. c #77F457",
"n. c #7BC66A",
"m. c #7DE464",
"M. c #7FEE63",
"N. c #829A7F",
"B. c #83A67D",
"V. c #88B27F",
"C. c #86BC7B",
"Z. c #80CF6D",
"A. c #83DD6D",
"S. c #88CF77",
"D. c #89D876",
"F. c #91DF7E",
"G. c #80E567",
"H. c #82E46A",
"J. c #85ED6B",
"K. c #84F567",
"L. c #8FEA79",
"P. c #858C85",
"I. c gray55",
"U. c #879884",
"Y. c #8C9A8A",
"T. c #989898",
"R. c #8AA685",
"E. c #94AF8E",
"W. c #8CB982",
"Q. c #90BA87",
"!. c #96A393",
"~. c #A1BB9B",
"^. c #A5ADA4",
"/. c gray66",
"(. c #B4B4B4",
"). c #B2BBB1",
"_. c #95C58B",
"`. c #95D486",
"'. c #9CC692",
"]. c #AAEF99",
"[. c #A2F190",
"{. c #B3C6AF",
"}. c #B9EBAE",
"|. c #BDE7B4",
" X c #C5E3BF",
".X c #C0C0C0",
"XX c #CCD3CB",
"oX c #D0D0D0",
"OX c #D4D8D3",
"+X c gainsboro",
"@X c #ECECEC",
/* pixels */
"X X X X X X X X X X X X X X X X X X X X X X X X X X X X X X X X X X X X X X X X X X X X X X X X X X X X X X X X X X X X X X X X ",
"0 0 0 0 0 0 0 0 0 0 0 0 0 0 0 0 0 0 0 . . . . . 0 0 0 0 7 7 7 7 7 7 7 7 0 0 0 0 0 0 0 0 0 0 0 0 0 0 0 0 0 0 0 0 0 0 0 0 0 0 0 0 ",
"0 +X+X+X+X+X+X+X+X+X+X+X+X+X+X+X+X+X+X+X+X/.i . 0 7 /..X+X+X+X+X+X+X+XoX/.p 7 + 0 0 i /.+X+X+X.X/.I.I.i y 0 7 7 7 7 7 7 7 7 7 0 ",
"0 +X+X+X.X.X.X.X.X.X.X.X.X.X.X.X.X.X.X.X.Xi 0 . 0 /.+X+XoXoXoXoXoXoXoXoXoX/.p + 7 0 /.+X+X+X+X+X+X+X+X+X+X+X+X+X+X+X+XoX.X.X(.T.",
"0 +X+X.XI.T./././././.T././.I./.I./././.I.0 0 . 0 (.+X.XI./.I./././.I././.p 0 + 7 0 +X+XoX/.I./.I..X.XoX+X+X+X+X+X+X+X+X+X+X+X+X",
"0 +X.X/././.p I././.T./.T././.T./.I.p I./.0 0 . 0 (..XI.T.T./.I./.I././.I.y 0 + 7 0 +X+XI.I./.I.I.I.I./.I.I.I././.I.I././.I.I./.",
"0 (..XI./.I./.p /.I.T.T.I.I.p T.I./.I./.I.i 0 . 0 (..X/.I./.I./.I./.I.I./.y 0 + 7 0 +X+X/.I.I.I.T.I./.I.I./.I.p I./.I.p I./.I.I.",
"0 (..XT././.I./.I.I.I.T.T.I.p T./.I.I.I.I.p 0 . 0 (..XI././.T.I.I.I.I./.I.y 0 + 7 0 +XoX/.I.I.I.T./.I.I.T.I./.T./.I./.T./.I./.T.",
"0 I..XI.T.I./.I./.T./.T./.T.T.I.I.I.T.I.T.p 0 . 0 (..XI./.T.I.I.p p /.I.T.y 0 + 7 0 +XoXT.I.I.I./.I.I.T.p p /.T.T././.T.T./.p T.",
"0 I..XI.I.T.I.I.I.I.I.I.T.I.I./.I.T.T.I.T.I.0 . 0 (..X/.T.I.I.I.p p I.I.I.y 0 + 7 0 +XoXI.p I.T./.I.I.I.p I.I./.I./.I./.I./.I.T.",
". i .X/.I.T././.T.I.T./.I.T.I.T.T./.I.T.I.I.0 . 0 (..XI.I./.I.T.I.T.T.p I.y 0 + 7 0 +XoXI.T./.I.I./.T.I.I./.T.I.T.T.T.I.T.T.T.I.",
". 0 .XI.T.I./.I.I.T./.I.I.I.p T./.I.T.I.I.I.0 . 0 (..XI./.I.p I./.I.I.p /.y 0 + 7 0 +XoXI./.I./.I.I.I.T.I.I.T.I.i i y y 0 0 0 0 ",
". 0 .Xp /./.I.T.I.T././.T.I.T./.I.I.I.T.T.I.0 . 0 (..X/.I./.I./.I.I.I./.I.0 0 X 7 0 +XoX/.I.I.i y y y 0 0 0 0 0 0 0 0 0 0 7 7 + ",
"+ 0 p 0 0 0 0 0 y i p p T././.I./.I././.I.p 0 . 7 (..XI.I.I.T.I./.p /.I.T.0 0 X 7 0 +X.Xi y 0 0 0 0 0 0 0 0 7 7 + + X . . . . . ",
"+ . . . . + 7 7 0 0 0 0 0 0 0 0 0 0 0 0 0 0 X . 7 (..XI.I./.T.T./.I.I.T.I.0 0 X 7 0 .XI.0 0 + + X . . . . . . . . . . . . . . . ",
"0 + . . . . . . X X X X X X X X X X X X X X . . 7 (..X/.I.I.p T.I./.I.I.p 0 0 X 7 7 + . . . . . . . . . . . . X X + + + + + 7 0 ",
"I.p i 0 7 : M ( ] ] ]  .( t.4 . . . . b ! ] ......c.J.Y.T.I./.Y.[ g.g.g.@.@.o.y.;.3 A @.@.@.@.@.+.@.@.@.@.@.@.d.t 0 0 0 i p /./.",
"+X+X+X.X.X/.k [ ` ` ` ` ` w.:.+ + X   a n n C C ` *.J.E.I.p T.7.D } } #.' ` ` @.e w j ` ` ` { | =.k.k.k.k.f.&.i.t 0 p T..X@X@X@X",
"+X+X+X+X+X+X:.f.k.k.k.k.j.K.|.+X+X+X{./ &.` n C ` &.J.~.I.T.I.R.F } } #.' ` ` r.q q d #.*.k.k.k.k.=.&.&.| | ` y.t I..X+X+X(..XT.",
"/./..X.XoX+X9.$.k.k.k.k.k.K.}.+X+X+XR.! { ` n C ` &.K.'.T.I./.4.E | #.#.` ` C t.7 9 D k.j.*.| &.| &.#.} &.| ` y.t /.+XoX.X.XT.(.",
"I./././.T.I.B.( &.=.&.=.*.c.S././.T.6.W ` ` m m ` &.v.S./.T.I.5.W %.| &.` ' ` ,.7 9 ~ k.| | &.| | #.| #.| | ` y.t .X+X(./.T.T./.",
"/.I.I.I.I./.5.F #.| &.&.| g.`.I././.P $.` ` n m ` *.c.S.T./.p -.[ | | | ` ` ] ,.7 9 ~ k.| #.&.#.#.| | #.| | ` y.t .X+X.XI.T.I.I.",
"I.I.T.I.T./.U.R &.#.| | &.%.F.I.I.T.H } ` ` n m ` &.l.F./.I./.S { } | | ` ` ] -.7 9 R k.| | &.| | *.| ! F F z m r .X+X/.I.I.I.T.",
"I././.I./.T.!.v #.&.&.#.| %.D.I./.P.v #.` ` n n ` *.k.F.I./.I.l } } | | ` ` ..L 7 9 D k.#.| | | #.e._.I./.T.0 . 7 +X+XI.T././.T.",
"/.I.I./.I.T.P.k | | &.| &.$.H.I.I.N.v *.` ` m n C *.j.H.I.I.P.S | | | &.` ` o.5 7 9 z k.} #.| #.&.d.V.I.I.I.0 . 7 +X+X/.I.T.I.I.",
"I./.I.I.T.I./.H [ &.#.#.&.#.H.I./.5.Y &.` ` m m C *.=.G.^.p u D | &.| } ` ` q.> 7 9 j k.| #.&.| | x.V.I./.T.0 . 7 +X+XI./.T.T.T.",
"0 0 0 0 i i I.L ] | | | | | H.Y.I.4.Y { ` ` m n C *.=.J.R./.7.F | | | | ` ` t.O 7 9 j k.| &.| } ' e.>.0 0 0 0 . 7 +X/.p 0 0 0 0 ",
"0 0 0 0 0 0 0 , V ` ` ` ` ` s.e 0 < V ` ` ` m n C &.=.m.~.I.4.F &.| &.| ` ` r.X 7 9 j | ` ` ` ` ` w.-.+ + + + . 7 /.p 0 0 0 0 0 ",
". . . . . + + ; x m n m m ` t.w + = N C C C m n C *.=.d.V./.4.G | | | #.` [ <.X 7 9 j n n n n n n ..6 . . . . . . . . . . . . . ",
". . . . . . . @ s m n n n n q.< . % n n n n n n C *.=.v.'.I.:.] | #.#.| ` X.U X 7 9 j C C C m ` C ] w.o.X...w.1.. . . . . . . . ",
"0 0 7 + + X X $ a n n n n n ..5 . & n n n n n N C *.=.p.S.T.;.] &.| | ' ` +.P X 7 9 z ` ` ` ` ` ` ` ` ` ` ' X.3.0 0 0 0 0 + 0 0 ",
"0 0 0 0 7 7 7 1 a ` ` ` ` ` @.:.1 d ` C A C V M A *.=.p.`.I.;.[ | } ' ` ` O.K + 7 9 j { *.*.k.k.k.k.k.k.k.k.b.].+X+X+X.X/.X + 0 ",
"0 0 i /.(.+X+XOXJ j.k.k.k.k.K.|. X/ k.k.&.W D S Z *.=.l.S./.P } ' ` ` m m o.< + 0 9 v &.k.k.k.k.k.k.k.k.k.k.b.].+X+X.X/.i X X 0 ",
"0 7 /.+X+X+X+X+XI h.k.k.k.k.K.].{._ k.*.' ] H K B =.=.%.Z.I.l ' ` ` m n n w.2 0 0 9 v k.k.=.&.| | | | &.| | u.F.I./.I.i 0 . X 0 ",
"0 7 (.+X(./././.L X.| &.&.| g.n.0.E &.' ` ..K 4 c *.=.$.H.^.S ` ` m m n ` d.r 0 0 9 R k.k.| | &.} $.#.E B R ( a.I.I.I.0 + . . 0 ",
"0 7 +X+XI./.I./.>.( | &.#.| u.D.8.W } ` ` o.4 w x *.=.%.G.U.v ` n n ` ` #.L.+X.X0 9 R k.=.#.| | &.%.C.I.T./.I.I./.I.I.0 + . . 0 ",
"0 7 +X+X/.T.T.I.4.Y &.#.| &.%.s.3...| ` C r.1 q h *.=.| m.9.F ` C n ` k.b.[..XT.0 q ~ k.| #.| #.| x.V.I.I.T.I./.T./.T.0 + . . 0 ",
"0 7 +X+XI.T.I./.4.Y | | #.| $.s.a.[ | ` C t.+ 8 - &.=.&.z.2.V ` n n #.j.%.F./.p 0 2 ~ k.| &.| #.| v.'.T.I.I.I.T.T.I.T.0 + . . 0 ",
"0 7 +X/.I.I./.I.5.D | | | | %.f.@.} &.` ` ^ + 0 - #.=.| z.^ Z C n n j.&.d.S.T.+ 0 1 ~ k.| #.&.#.#.v.Q./.I.T.I.I.T.T./.0 + . . 0 ",
"0 7 /.i i i I.I.U.l &.| &.| &.$.e.} | ` ] U + 0 , X.=.#.u._ A C n | j.j.z.W.I.+ 0 1 ~ j.&.| | | | z.Q.T././././.T.I./.0 + . . 0 ",
"0 7 0 0 0 7 i /./.l } | | %.#.#.&.| ` ` ..I + 0 < Q =.#.} ` ` m n j.*.#.G.B.i . 0 1 Q =.| &.| | &.G.V.I./.I./.I././.I.0 + . . 0 ",
"0 7 + + . . 7 0 0 - A ` ` ` ` ` ` ` ` ` +.< + 0 2 Q &.' ` ` C n n k.| &.G.!.0 . 0 1 _ k.&.&.&.| &.p.'./.I./.T./.I.T.I.0 + . . 0 ",
"0 0 0 0 + . . + + = b C C C C C ` m ` n O.; + 0 1 R =.` ` C m n C k.&.#.G.I.0 . 0 1 ~ j.| #.} =.| g.x.z.p.p.g.z.S.I./.0 + . . 0 ",
"0 0 0 0 0 + . . . # f n m n n n n n n n t.o + 0 0 l ` m C m n n ` } #.=.D.T.0 . 0 8 ~ k.| | #.| | | | | | | | f.S.I.i 0 + . . 0 ",
"0 0 0 0 0 0 + + X $ s m m m m C m m n C r.X + 0 + * N m n n n C ` m ` A 1.0 0 . 0 1 ~ =.| { ` ` ` ` ` ` ` ` ` X.3.0 0 0 + . . 0 ",
"0 0 7 7 0 0 0 0 0 2 z ` ` ` ` ` ` ` ` [ 3.0 0 + + # f n n C ` ` ` ` m W I . . . 9 1 R #.{ ` C C C C m ` C m C ! 1.+ + + + . . 0 ",
"0 T..X.X.X.X(.T.i t j ` ` ` ` ` ` ` ` $.2.7 7 7 7 , x ` ` ` ` ` ` ` ` e.P + . . 0 : s n n n n n n n n n n n n W ,.. . . . . + 0 ",
"0 .X+X+X+X+X+X+X+XXXJ k.j.#.} ` ` ` ` @.'.+X+X+X+X{.~ k.k.=.k.j.&.| ' w.;.7 0 0 0 : a n n n n n n n n n n n n W ,.. . . . + + 0 ",
"0 .X+X+XoXoXoXoXoXoXH ) / / / Q z d z Z  X+X.X.X.X).J Q Q Q R Q ) ) _ f. X/.i 7 7 : h z d s s s s s s s s s s f F X X X + + 0 0 ",
"0 .X+XoXT.I.I.I.I././.T.I./.I.y 0 + 0 7 +X.XI./.I././.T.I.T./.I./.I..X.X.X.X.X.Xi 7 7 + 0 0 0 0 7 7 7 7 7 7 0 7 7 7 7 7 7 7 7 . ",
"0 .XoXT.I.I.T./././.T.I.I.I.I.y 0 + 0 7 +X.XT.^./.I./.I././.I./.I.I.I.I./.I./.I..X/.7 . + 0 0 p /./././././././././././././.p . ",
"0 .XoXI.T./.I.I.I.T.I.I./.I.I.y 0 . 0 7 +X.XI.T.I./.I./.I.I.I.I.p T.I././.I.I.I.I.i 0 . + 0 p /.+X+X+X+X+X+X+X+X+X+X+X+X+X.X0 . ",
"0 .XoX/.I././.I./.T.I./.I.T.p 0 + . 0 7 +X.XI.I./.I.I.I.I.T.I.I./././.p I./.I.I.T.0 0 . + 0 /.+X+X/.I./.I.I.I././.I.I./.I.I.0 . ",
"0 .XoX/./.T.I.T.I.I.I.I./.I.i 0 + . 0 y +X.XI.I.T.I.I.I.I.T.I.I./.T.I./././.T.T.T.0 0 . + 0 /.+X.XI./.I.I.I.I./.I./.I.I./.I.0 . ",
"0 .XoXI.T.I./.I./.I./.I.T.I.i 0 X . 0 i +X.X/.I.p I.T.I.T.p p T.T./.T././.I./.I.i 0 0 . + 0 /.+XI./.I./.I./.T.I.I./.I.T.I./.0 . ",
"0 .XoX/.I.T.I.I.I.T.I./.I.T.y 0 . X 0 T.+X.Xp I.I./.T.I.I.p p I.T.I./.I.T.T./.I.0 0 + . 7 0 /.+XI.T.I./.T.I.I.I.T.I./.I./.I.0 . ",
"0 .XoXI./.I.T.I.I.I.I.I./.I.y 7 . + 0 /.+X.XI.T./.I.I./.I.I./.T.I./.T./.I./.I./.0 0 + . 7 0 /..XI.I.I.T.T.T.I./.I.T.I.T.T.y 0 . ",
"0 .XoXI.I.T.I.I.I.I.I.I.I.I.0 7 . + 7 +X+X/.I./.I./.I.I.T.I.I.T.T.I.T.I./.I.T.I.0 0 + . 0 0 /.p y y y y y y y y y y y y y 0 0 . ",
"0 .XoX/.I.I.I.I.I./.I.T.I./.0 + . + 7 +X/.i 0 0 0 0 0 0 0 0 0 0 0 0 0 0 0 0 0 0 0 0 . . 0 0 p 0 0 0 0 0 0 0 0 0 0 0 0 0 0 0 + . ",
"0 .XoXI.I.I./.I.T.I././.I.y 0 + . 7 7 /.i 0 0 0 0 0 0 0 0 0 0 0 0 0 0 0 0 0 0 0 0 + . X 0 + X . . . . . . . . . . . . . . . . . ",
"0 T.(.y y y y y y y y y y 0 7 + . 0 7 . . . . . . . . . . . . . . . . . . . . . . . . + 0 + + . . . . . . . . . . . . . . . . . ",
"0 0 i 7 7 7 7 + + + + + + + + X . 0 7 . . . . . . . . . . . . . . . . . . . . . . . . + 0 0 + + + + + + + + + + + + + + + + + 0 ",
"0 . . . . . . . . . . . . . . . . 0 0 7 + X X X X X X X X X X X X X X X X X X X X X + 0 0 0 0 0 0 0 0 0 0 0 0 0 0 0 0 0 0 0 0 0 ",
"+ + + + + + + + + + + + + + + + + + + + + + + + + + + + + + + + + + + + + + + + + + + + + + + + + + + + + + + + + + + + + + + + "
};
