/* XPM */
static char *_2088453d6e34324bb4de4c2fe10434cRemitE1Ze0UXndhS[] = {
/* columns rows colors chars-per-pixel */
"64 64 184 2 ",
"   c black",
".  c #00000D",
"X  c #000026",
"o  c #00002D",
"O  c #1F1F28",
"+  c #0B0B30",
"@  c #00003B",
"#  c #202020",
"$  c #2C2C2C",
"%  c #242434",
"&  c #282838",
"*  c gray22",
"=  c #000043",
"-  c #00004B",
";  c #131341",
":  c #1C1C47",
">  c #000053",
",  c #00005C",
"<  c #141454",
"1  c #1D1D52",
"2  c #1C1C5B",
"3  c #282844",
"4  c #292947",
"5  c #353543",
"6  c #3E3E4C",
"7  c #262656",
"8  c #2B2B54",
"9  c #2C2C5B",
"0  c #3F3F54",
"q  c #000064",
"w  c #020269",
"e  c #0F0F6B",
"r  c #151562",
"t  c #1E1E6B",
"y  c #000073",
"u  c #0B0B77",
"i  c #02027A",
"p  c #09097F",
"a  c #14147B",
"s  c #262666",
"d  c #23236A",
"f  c #2D2D6E",
"g  c #323260",
"h  c #3A3A67",
"j  c #323268",
"k  c #232373",
"l  c #24247D",
"z  c #363677",
"x  c #3C3C7A",
"c  c gray25",
"v  c #43434F",
"b  c #484848",
"n  c #4A4A55",
"m  c #434358",
"M  c #4C4C5C",
"N  c gray33",
"B  c gray36",
"V  c #444462",
"C  c #4B4B61",
"Z  c #48486B",
"A  c #595965",
"S  c #5C5C6B",
"D  c #444472",
"F  c #4C4C76",
"G  c #59597D",
"H  c #646464",
"J  c #64646E",
"K  c #69697A",
"L  c gray44",
"P  c #7C7C7C",
"I  c #000084",
"U  c #090982",
"Y  c #00008C",
"T  c #0B0B8B",
"R  c #151583",
"E  c #13138B",
"W  c #1A1A8B",
"Q  c #000093",
"!  c #0B0B94",
"~  c #000099",
"^  c #09099D",
"/  c #141495",
"(  c #1D1D92",
")  c #14149B",
"_  c #1B1B9B",
"`  c #272781",
"'  c #2C2C80",
"]  c #383888",
"[  c #2E2E99",
"{  c #38389E",
"}  c #0000A5",
"|  c #0A0AA3",
" . c #0000AB",
".. c #0C0CAF",
"X. c #1616A4",
"o. c #1C1CA2",
"O. c #1515AD",
"+. c #1B1BAC",
"@. c #0B0BB6",
"#. c #0E0EB9",
"$. c #1414B4",
"%. c #1B1BB3",
"&. c #1313BD",
"*. c #1A1ABC",
"=. c #2121A5",
"-. c #2424AD",
";. c #3D3DA1",
":. c #3F3FA9",
">. c #2323B4",
",. c #2424BE",
"<. c #2F2FBA",
"1. c #3737B7",
"2. c #3333BC",
"3. c #474786",
"4. c #4F4F8A",
"5. c #505082",
"6. c #5D5D80",
"7. c #444493",
"8. c #4E4E9E",
"9. c #525294",
"0. c #585897",
"q. c #5B5B9B",
"w. c #67678A",
"e. c #7B7B84",
"r. c #75758A",
"t. c #7A7A8C",
"y. c #62629A",
"u. c #707091",
"i. c #77779B",
"p. c #4747A2",
"a. c #4B4BA7",
"s. c #4D4DAE",
"d. c #5656AE",
"f. c #5F5FA9",
"g. c #4E4EB7",
"h. c #4646BF",
"j. c #4E4EBB",
"k. c #5353B5",
"l. c #5C5CBF",
"z. c #6262A2",
"x. c #7676A2",
"c. c #7272AF",
"v. c #6868B3",
"b. c #6868BB",
"n. c #7A7AB8",
"m. c #1515C0",
"M. c #1A1AC5",
"N. c #1E1EC9",
"B. c #2020C5",
"V. c #2B2BC1",
"C. c #2121CC",
"Z. c #2A2ACC",
"A. c #3333C5",
"S. c #3D3DC4",
"D. c #3333CB",
"F. c #3B3BCD",
"G. c #2525D0",
"H. c #2929D4",
"J. c #2E2ED9",
"K. c #3434D5",
"L. c #3C3CD2",
"P. c #3232DA",
"I. c #4242C1",
"U. c #4D4DC4",
"Y. c #4343CD",
"T. c #4A4ACA",
"R. c #5A5AC5",
"E. c #4242D5",
"W. c #4C4CD3",
"Q. c #4545DC",
"!. c #4D4DDA",
"~. c #5151D3",
"^. c #5B5BD6",
"/. c #5353DB",
"(. c #5959DC",
"). c #6666D1",
"_. c #6464DB",
"`. c #7070DA",
"'. c #5454E0",
"]. c #5C5CE2",
"[. c #6565E0",
"{. c #6868E1",
"}. c gray55",
"|. c #878799",
/* pixels */
"$ $ $ $ $ $ $ $ $ $ $ $ $ $ $ $ $ $ $ $ $ $ $ $ $ $ $ $ $ $ $ $ $ $ $ $ $ $ $ $ $ $ $ $ $ $ $ $ $ $ $ $ $ $ $ $ $ $ $ $ $ $ $ $ ",
"$ $ $ $ $ $ $ $ $ $ # P P P P P P P P P P P P P P P P     b H P L L L L L L P P H b $   # # # # # # # # # # $ $ $ $ $ $ $ $ $ $ ",
"# # # # # # # #   $ # P L L L P L L L L L L P L L L b     b P L b H b b b b b b H $       b b b b b b b * b * # # # # # # # # # ",
"b b b b b b b b   $ # P L P L L L L P L L P P L L b *     H P H H b b H b H b H b $       b P P P P P P P L H b b b b b b b b b ",
"P P P P P H * b   $ # P L H H H H b H H H H N H H * $     b P H b b H H H H b b b $       b P P P P P L P P P P P P P P P P P P ",
"b b L N H b * b   # # }.P N H H H H H H N H b H H b $     # H b H H b H b b H b $ $       b P L H b H b H H H b b H b b b H b H ",
"H P L H H H * $   # # }.L H b H N H b N N N b N H b $     # * b b H b b H b H H #         b P L b H b N b b b H b b H b H H H H ",
"N P L L b N * $     # }.L b N b H H H b * b N H b * $     # # b H H H b b H H b #         b P L H b N * H N * b H P H H b N P H ",
"b L b H H b * $     # P P H N H b H b N b N b b H b $     # $ # * # # # #                 * P P b H b * N * N N H b b b N H H N ",
"H H L b b N * $     # H }.H H H b b N b b b b H b $ *       #                         # # # P L b b b N N N N P b N b b N b N b ",
"N b N N N b # #     # b P b H b N * b N H N H N H N $       #                         # $ # P L b H b H b b b N b * b H b H b b ",
"b b b b b $ # #     # b P H b N * * * H N b b * N b *       # # # # b * b H H H H N b   $ # L b b b * * * $ $ $ $ $ * * * * * * ",
"* * * * $ #         $ # P L b N b N N N N H * b H N $       # b H H P P }.P L L N b $   $ # b b * * $ # # # $ $ $ $ $ $ $ $ $ $ ",
"# # # $ $           $ # H L N H N * b H b N N N b b $         H P P L L b H N H b b #             # # # # # # # # # # # # # # # ",
"                    $ # b L H N H N b * b * b H N $ $       # H P P H b N b b b b $                                             ",
"                    $ # b P N H N b H N H b H N H $ b #     # H }.H B B B b H b H $       # $ $ $ $   # # # # # # # # # # # # # ",
"N N N N N N N N N     $ # P u.7.1.D.F.F.A.Y.s.7.Z b $ $     # H }.b B H H A 8.:.Z.A.>.>.2.p.q.P P $ # $ * N N N N N N N N N N N ",
"P P P P P P L L b     $ : >.K.B.N.M.&.m.N.Z.L.L.Y.j.F O     # H L H H A [ Z.N.C.*.#. . .$.L.!.(.f.  # * P P P P P P P P P P P P ",
"H N b H N H H b L     7 | *.N.C.N.C.C.N.C.M.N.M.*.F.T.x     # H L H m =.&.&.M.#.#.#. . . .H.H.K.W.:.% N P L L L L L L L L L L L ",
"H b H N H b b b b   . U ..@.N.M.m.N.N.m.@.@.M.@.m.&.,.U.+     H b v W %.@.@.@.@.@. . . .&.H.H.m.B.2.k.N P L H N H N H b N b N N ",
"H N N H N H N b $   = ! #.@.&.#.#.#.@.@.@.@. . . . . .2.]     b b < ^ @. . . . . . . . .&.H.C.C.m...T.0.P H b B b B b N b * b b ",
"H b H N H N N b $   > | #.@. . . ... .Q i Q  . . . . .>.{       $ y }  . . . . ... .Y I O.H.C.M.M. .<.l.P b H B H B H B N b N N ",
"b H * * b N H b $   q } #.#.@. . .%.w   X i  . .@.@.@.*.j.# O b 0 ! C.C.M.m.m.&.V.w   7 =.H.C.M.&. .&.^.t.H N N b N b N c c b b ",
"b b * * b H N * #   w  .M.H.H.H.H.(.L H b u  .@.&.&.C.Z.{.P L P 6.[ H.H.H.H.H.N.Y.;   4 _ H.C.M.m. .@.T.i.H N b H b H b c c b N ",
"b N H H N N b * #   w  .H.H.N.N.M.^.H N N w #.@.#.H.J.J.[.P L P 6.o.H.H.H.H.H.M.T.+   0 ( H.M.M.M. .@.W.x.b H N b N b b H b H b ",
"N H N N H N b $     w } H.C.M.N.C./.q.N H q T T / =._ / Z.b H N g o.N.C.M.M.N.#.T.+   v ( N.M.C.@. .@.S.4.b * $ $ $ * * b * b b ",
"* * * * * $ #       , ~ H.C.C.C.N.K.~.b.*   # # N }.H H H b * H D ) M.M.C.M.N.#.T.+   v W C.N.N.#. .#.2.d # # # # # # # # $ $ $ ",
"$ # #               - Y H.N.N.M.C.Z.Z.Y.g.; # # N }.N H N N H b g o.M.N.N.N.N.#.T.+   v ( N.C.m.#. .#.2.d                     # ",
"            # # # # ; U H.C.N.*.C.M.C.B.A.I.s # N }.N N H b b * h X.N.N.m.M.M.@.T.+   v ( N.N.N.#. .#.2.d                       ",
"# * * b b N b b b b O , -.C.N.M.M.C.M.M.&.>.I.] N }.H b b N * b h ) N.&.M.M.N.#.T.+   v ( N.C.C.#. .#.S.z # $ $ $ $ $ $ $       ",
"* b L P P P L L L H b X W +.C.M.M.m.C.m.&. .$.I.k.e.P N N H b N 7 ! M.#.m.N.M.@.T.+   v W M.N.C.#. .@.W.c.P L b * $ # # # # # $ ",
"* L L L P L H H N H #   r.R X.N.M.M.C.N.M.@. .*.Y.).t.H b N * N 9 ) M.M.N.M.&.#.I.+   v W C.M.N.#. .@.!.0.b L P P P P P P N   $ ",
"* P L H H b H N N b H   }.M ` _ B.C.M.C.M.@. . .*.!.`.K H N N N h o.m.m.N.M.M.@.I.+   v [ m.C.m.@. .@.!.q.N H H N N H N b *   $ ",
"* P L N b H b N N H b   }.N v k _ *.C.m.&.#. . .@.Z.'.).J H N b 7 ) #.m.N.M.M.@.I.+ # v W N.C.N.m. .@./.z.H N N H H N H N *   O ",
"* P H N H N H H * H $   P H H H f R %.C.&.#. . .#.M.P./.v.b H N g ) M.N.m.N.#.@.1.+ # v W N.N.N.#. .@.!.z.N H B b b b N H *   # ",
"* P L H N N H N H b $   P P b N * D E X.&.#. . .@.M.H.L._.n * N h ) N.m.N.M.m. .I.+ # v E N.G.@.#. .@.!.y.b N b b N b b H $   # ",
"* P L b H H N H b N $   P P b N H b D R ! @. . .@.#.G.H.(.5.H N D ) N.M.m.&.#. .I.+ # 5 E m.#. . . .@.W.y.b H N B H N b N $     ",
"* P L H H N N N H N R $.E.Q.F.L.A.~.D S d T }  . .#.m.H.W.9.* * 7 ! @.@. . . . .I.+ # & y  . . .@.@. .Y.x # $ $ $ $ $ $ $ $     ",
"* P L N H H N N * N r ~ N.H.M.M.N.(.F b b e ~  . .#.@.M.F.8.$ # @ I  . . . . . .I.+ # & u @.@.#.#.#.#.2.d                       ",
"* P L b N B H b H b r ~ m.H.N.N.C.~.F H * 1 Y  . .@.@. .>.;.    @ I  . . . . . .I.4 # % U @.@.@.@.@.@.S.z #                     ",
"* P L H H N B H B H r Q #.J.M.C.N.W.w.b * 1 I  . .@.@.@.$.;.    @ T @.@.@.@.@.@.T.4 # 3 U &.&.&.&.&.&.Y.D * * * * * * * * *   $ ",
"* P L b B H N H N b 2 I @.J.C.M.M.W.5.H b 2 Q  . . .m.&.V.a.* * 8 T &.&.&.&.&.#.~.C N V ) Z.G.H.H.H.H.(.i.L P P P P P P P *   $ ",
"* L L H H N H N H $ @ I @.J.C.N.C.F.d.b 5 E }  . . .&.H.Q.b.P P K W Z.H.H.H.H.H./.c.L 9.,.J.J.J.J.J.K.].|.}.}.}.P P L L N *   # ",
"* L L N H b H H b $ o y @.J.M.N.&.Z.Y.W.m... . . . .#.H.Q.n.}.}.}.` B.H.J.J.H.J.Q.].Q.J.H.H.H.H.H.H.K.^.P H P P L P P L * $   # ",
"* P L H b H b b b $ . q | H.N.N.M.N.m.M.&.#. . . . .&.H./.w.P P P G _ B.H.H.C.H.H.H.C.G.N.N.N.m.M.C.F.q.N b N H N H B H b $     ",
"# P b b H b b b b $   @ p B.M.M.N.M.N.M.M.#. . . . .*.K.R.L b b b N t ) B.N.C.C.M.M.N.C.C.N.N.*.N.C.I.H N b H N H H H B b $     ",
"# L H H H b $ $ $       < W +.*.M.C.M.m.m.#. . . ...$.S.r.P b N b H M l / *.C.M.M.N.N.C.M.N.m.C.C.-.v N N N B H B H N H b $     ",
"# * * * $ $ $ $ $       O V l ) X.$.*.M.&.@... .~ ~ q L P L H H N b N b s R / %.$.N.M.N.N.m.$.%.7.N b H b c c H * N b N b $     ",
"#         $ $ $ $     # # * * 8 9 a T ! T T Y > >     H P L N N H B H N b H j k T / / / o.' 3.N B H N b * N b b H b * * b $     ",
"$ $ $ #               #                               b L L L N N H B H 6 b b N c N b N * H b b * N b N b H N * b N * * b $     ",
"# # # # # # #         #                               b N N N b b b b N H N H H b b * b b b * b b H N H N N H N b b b N b $     ",
"# * H H H H N b * # # $                               $ #         # # # $ b b * * * * * * * * * * * * * * * * * * * * * * $     ",
"# H P P P P P P P H H b b * $ #                     # $ # #               # $ $ $ $ $ $ $ $ $ $ $ $ $ $ $ $ $ $ $ $ $ $ $ #     ",
"# H P H H b P L P P P P H H H H H H H H b b b * * b * * $ $ # # # # #         # # # # # # # # # # # # # # # # # # # # # #     # ",
"# H P H H H L L b H P P P P P P P P P P P P P L L P P H H H H H b # $ #                                                     # # ",
"# H P H B b * N H N b * H b H b H b H H b H N H H L P P P P L P *   # $ # # #                                           # # # $ ",
"# H L H H B b b B N b N H b b H N * b H * N b N H b H N H H H * *     $ # H P P H * # # # $ $ $ # # # # # # # # # # # # $ $ $ $ ",
"# H P H b B * * N H b H H N b * N * b * N b H b N N H N N H H * $     # # P H H P P P P L $ $ # N P P P P P P P L P L N * # # $ ",
"# H b * * * * * * * * * * * * * * * * * * * * * * * * * * * * $ #       # P L L L L L L L * $ * P H H B b B b B N H b H P N   $ ",
"# b * # # # # # # # # # # # # # # # # # # # # # # # # # # # # # #       # L H L L N L N b * # L H b B b B B B b H b H b H $   $ ",
"#                                                                       #   #   $ $ * * * * # P H N N H H N B H B B H b b $   $ ",
"$ #                                                                       $ $ #               $ $ $ $ $ $ $ $ $ $ $ $ $ $ $   $ ",
"$ $ $ $ # # # # # # # #                                                   $ $ $ # #           $ $                             $ ",
"* * * * * * * * * * * * * * * * * * * * * * * * * * * * * * * * * * * * * * * * * * * * * * * * * * * * * * * * * * * * * * * * "
};
