/* XPM */
static char *_cd81b6b767c410afa17ff4fc49ec766TrngjoXew0zVucQg[] = {
/* columns rows colors chars-per-pixel */
"64 64 151 2 ",
"   c black",
".  c #282800",
"X  c #343400",
"o  c #3E3E00",
"O  c #30300D",
"+  c #34341E",
"@  c #3B3B1A",
"#  c #202020",
"$  c #2C2C2C",
"%  c #3E3E26",
"&  c #32322A",
"*  c #3E3E36",
"=  c gray22",
"-  c #454500",
";  c #4D4D16",
":  c #424219",
">  c #525214",
",  c #52521D",
"<  c #585819",
"1  c #616104",
"2  c #696900",
"3  c #62620F",
"4  c #6D6D0C",
"5  c #717100",
"6  c #7A7A01",
"7  c #7B7B0C",
"8  c #616116",
"9  c #6D6D17",
"0  c #737314",
"q  c #7A7A11",
"w  c #73731E",
"e  c #7A7A1C",
"r  c #444424",
"t  c #5C5C24",
"y  c #4C4C32",
"u  c #5E5E35",
"i  c #56563C",
"p  c #6C6C23",
"a  c #757526",
"s  c #767629",
"d  c #7F7F29",
"f  c #626232",
"g  c #777736",
"h  c #7E7E34",
"j  c #787838",
"k  c #4C4C45",
"l  c #484848",
"z  c #5F5F46",
"x  c #555549",
"c  c gray33",
"v  c #61614A",
"b  c #606055",
"n  c #6B6B54",
"m  c #6A6A58",
"M  c #757557",
"N  c #75755E",
"B  c #646464",
"V  c #7D7D66",
"C  c gray44",
"Z  c #7C7C7C",
"A  c #818100",
"S  c #8B8B00",
"D  c #838309",
"F  c #8B8B0A",
"G  c #929200",
"H  c #9D9D00",
"J  c #929209",
"K  c #9C9C0C",
"L  c #828213",
"P  c #8C8C12",
"I  c #83831A",
"U  c #8B8B1B",
"Y  c #939314",
"T  c #97971D",
"R  c #9B9B1B",
"E  c #A4A400",
"W  c #ABAB00",
"Q  c #A7A70D",
"!  c #ACAC0D",
"~  c #B6B60B",
"^  c #B9B90E",
"/  c #A2A217",
"(  c #ACAC13",
")  c #A0A01F",
"_  c #ADAD1C",
"`  c #B4B414",
"'  c #BCBC12",
"]  c #B4B41A",
"[  c #BDBD19",
"{  c #85853C",
"}  c #929231",
"|  c #9F9F39",
" . c #A9A921",
".. c #B7B724",
"X. c #BDBD23",
"o. c #BABA2D",
"O. c #ABAB32",
"+. c #A7A73A",
"@. c #BBBB33",
"#. c #BFBF3D",
"$. c #C5C51A",
"%. c #C3C324",
"&. c #CCCC21",
"*. c #C1C12C",
"=. c #D0D025",
"-. c #D4D429",
";. c #C3C331",
":. c #CDCD32",
">. c #C4C43C",
",. c #CDCD3B",
"<. c #D5D534",
"1. c #D4D43A",
"2. c #878741",
"3. c #979743",
"4. c #9D9D47",
"5. c #8B8B51",
"6. c #949453",
"7. c #9D9D54",
"8. c #929259",
"9. c #9A9A5A",
"0. c #A9A945",
"q. c #AAAA49",
"w. c #B9B940",
"e. c #A6A656",
"r. c #A3A35B",
"t. c #B6B653",
"y. c #B3B35D",
"u. c #BEBE5B",
"i. c #808068",
"p. c #929264",
"a. c #838373",
"s. c #BDBD63",
"d. c #C5C546",
"f. c #CCCC43",
"g. c #CBCB4C",
"h. c #D7D744",
"j. c #DADA45",
"k. c #D6D64D",
"l. c #D9D94F",
"z. c #C4C451",
"x. c #CCCC50",
"c. c #C6C65B",
"v. c #D5D554",
"b. c #D5D55C",
"n. c #D9D95B",
"m. c #C2C266",
"M. c #CFCF65",
"N. c #C9C96F",
"B. c #D4D466",
"V. c #DBDB61",
"C. c #DBDB6B",
/* pixels */
"$ $ $ $ $ $ $ $ $ $ $ $ $ $ $ $ $ $ $ $ $ $ $ $ $ $ $ $ $ $ $ $ $ $ $ $ $ $ $ $ $ $ $ $ $ $ $ $ $ $ $ $ $ $ $ $ $ $ $ $ $ $ $ $ ",
"$ $ $ $ $ $ $ $ $ $ $ $ $ $ $ $ $ $ $ $ $ $ $ $ $ $ $ $ $ $ $ $ $ $ $ $ $ $ $ $ $ $ $ $ $ $ $ $ $ $ $ $ $ $ $ $ $ $ $ $ $ $ $ $ ",
"$ Z Z Z Z Z Z Z Z Z Z Z Z Z Z Z Z Z Z Z Z B $   $ $ B Z Z Z Z Z Z Z Z C B =     $ $ $ B Z Z Z Z B B l $ # $ $ $ $ $ $ $ $ $ $ $ ",
"$ Z Z Z Z Z Z Z Z Z Z Z Z Z Z Z Z Z Z Z Z $ $   $ B Z Z C C C C C C C C C B =   $ $ B Z Z Z Z Z Z Z Z Z Z Z Z Z Z Z Z Z Z c   $ ",
"$ Z Z Z l c B B B B B c B B l B l B B B l $ $   $ Z Z C l B l B B B l B B = #   # $ Z Z C B l B l B Z C Z Z Z Z Z Z Z Z c $   $ ",
"$ Z Z B B B = l B B c B c B B c B l = l B $ $   $ Z C l c c B l B l B B l # #   # $ Z Z l l B l l l l B l l l B B l l B $ $   $ ",
"$ C Z l B l B = B l c c l l = c l B l B l $ $   $ Z C B l B l B l B l l B # #   # $ Z Z B l l l c l B l l B l = l B l l $ $   $ ",
"$ C Z c B B l B l l l c c l = c B l l l l = $   # Z C l B B c l l l l B l # #   # $ Z C B l l l c B l l c l B c B l B c $ $   $ ",
"$ l Z l c l B l B c B c B c c l l l c l c = $   # Z C l B c l l = = B l c # #   # $ Z C c l l l B l l c = = B c c B = c $ $   $ ",
"$ l Z l l c l l l l l l c l l B l c c l c l $   # Z C B c l l l = = l l l # #   # $ Z C l = l c B l l l = l l B l B l c $ $   $ ",
"  $ Z B l c B B c l c B l c l c c B l c l l $   # Z C l l B l c l c c = l # #   # $ Z C l c B l l B c l l B c l c c c l $ $   $ ",
"  $ Z l c l B l l c B l l l = c B l c l l l $   # Z C l B l = l B l l = B # #   # $ Z C l B l B l l l c l l c l = = = = = $   $ ",
"  $ Z = B B l c l c B B c l c B l l l c c l $   # Z C B l B l B l l l B l # #   # $ Z C B l l = = = = = = = = $ $ $ $ $ $ $   $ ",
"  $ = $ $ $ $ $ # $ = = c B B l B l B B l = $     Z C l l l c l B = B l c # #   # $ B B = $ $ $ $ $ $ $ $ $ $ $ # # # #       $ ",
"          # # # $ $ $ $ $ $ $ $ $ $ $ $ $ $ $     Z C l l B c c B l l c l # #   # $ B l $ $ # # # # # #                       $ ",
"$                                                 Z C B l l = c l B l l = # #   # $                                           $ ",
"$ # # #                   X E ....................j.h.b.n l B c c l } *.;.*.....*.;.;.;.;.g.2.$ $ $ $ $ $ $ $ $ $ $ $ $ $ $ $ $ ",
"$ $ $ $ $ $ $ $ $ $ $ $ $ r D ^ ^ ' W W W W W W W -.=.n.v = c l l = 9 [ ^ ~ W W ~ ^ ^ ' ~ ;.7.B Z Z Z Z Z B c   $ $             ",
"# # # # # # # # # $ $ l c N T -.-.-.-.-.&.W W W W -.&.n.v c l B l = q $.^ ~ W W ~ ^ W $.=.h.N.Z Z Z B B l l $   $ l B Z Z Z Z Z ",
"Z Z Z Z Z Z Z Z Z Z Z Z Z V T -.-.-.-.&.^ ~ W W W -.=.n.n l B l l k L $.~ ~ W W ~ ^ $.-.&.<.c.B l B l l B l $   $ B Z Z Z Z Z Z ",
"Z Z Z Z Z Z Z Z Z Z C Z C n Y &.&.$.&.$.^ ~ W W W -.=.v.V c l B l n P &.^ ~ W W ~ ^ -.-.$.$.V.x l c l c l l $   $ Z Z Z B c c B ",
"B l l l c B c l c l B B l z Y $.&.&.$.&.^ ~ W W W -.=.n.n B = l c u Y $.~ ~ W W ~ ~ -.-.$.$.n.M c l l B l l $   $ Z Z Z l c l l ",
"l l c l c B B B B c l l B i P $.$.$.$.$.^ ' W S A R T &.V l B l = t / $.~ ~ W W ! ! =.-.$.$.v.5.l c l c l l $   $ Z Z B l l l c ",
"c B B c B c B l c B B c l i P [ &.$.$.$.^ X.1     Z C B l B l l = < ( $.~ ~ W ( Y Q $.-.$.$.f.6.c l B l B c $     Z Z l c B B c ",
"B l c B l c l l l c B l B i P $.$.$.$.$.~ >.p   # Z C l l l l c l a ` &.~ ~ W ..0 F ' -.$.$.,.y.c l l l l l $     Z Z B l c l l ",
"l B c l c l B c l B c c B i P $.&.$.$.&.' >.p   # Z C l B = = l l I [ ' ~ ~ W @., 7 E -.$.$.:.u.l B l l B c $     Z Z l B c c c ",
"$ $ $ = = = l l l l l l l i F $.$.$.$.^ ~ >.p   # Z C B l B c = k D $.$.~ ~ W >.+ 4 H &.$.&.&.b.$ $ $ $ $ $ $     Z B = $ $ $ $ ",
"$ $ $ $ $ $ $ $ $ $ $ $ $ r D ^ ^ ^ ^ ^ ' >.p   # Z C l B l l l m L &.$.~ ~ W w.# 8 G $.' ~ ~ x.y # # # #         B = $ $ $ $ $ ",
"# # # # # # # # # # # # # @ D ~ ~ ~ ~ ~ ~ o.p   # Z C l l B c = u Y $.$.~ ~ ` +.# , S W W W W >.t                               ",
"#                         . 6 W W W W W W ] @.o.*.j.l.m.B l l B f / $.$.~ ~ ] } # ; J W W W W @.s                               ",
"$ $ #                     . 6 W W W W W W W W ~ ~ -.1.q.l c c l g _ $.^ ~ W ..a # t F ~ ~ ~ ~ *.3.# # # # # # # # # # # #   # $ ",
"$ $ $ $                   . 6 W W W W W W W ^ ^ ' -.1.t.B l c l p ! ^ ~ ~ W @.g & r D ~ $.&.-.j.N.Z Z Z Z Z Z Z Z Z Z Z B     $ ",
"$ $ $ B C Z Z Z Z Z Z Z Z V R -.-.-.-.-.&.W ~ ~ ' -.<.s.l B c l 0 ~ ~ ~ W W @.u $ % 7 &.-.-.-.<.C.Z Z Z Z Z Z Z Z Z Z B l     $ ",
"$ $ B Z Z Z Z Z Z Z Z Z Z V T -.-.-.-.&.' W ~ ~ ` -.1.t.= l l * 7 ~ ~ W W W d.y $ & q -.-.-.&.&.n.b c B c c c B c B c l #     $ ",
"$ $ C Z C B B B l B k B B x Y $.&.$.&.' ^ W ~ K F ) _ O.l B B % 7 ~ W W W ' g.$ $ $ e &.-.$.$.&.v.M B l l l B c l c l $ #     $ ",
"$ $ Z Z l B l B B B c B c i P $.$.$.$.' ~ ] w $ $ Z C B l l l : S W W ^ $.-.B.Z $ $ h %.&.$.$.$.l.8.l l c B l c B c l $ #     $ ",
"$ $ Z Z B c c c c l B c l n P $.$.&.$.' ~ @.g $ $ Z C l c l l ; S W ' -.-.<.N.c # $ 4.*.$.$.$.$.f.r.l l l c c B c B c $ #     $ ",
"$ $ Z Z l c c B l c l l c i P $.&.$.$.^ ~ @.g $ $ Z C B l = $ > G W $.-.$.-.j.d.*.[ &.-.$.-.$.$.:.s.B c l l l c c l c $ #     $ ",
"$ $ Z B l c B c l l c l l i P &.$.$.$.^ ~ @.g $ $ Z C l c = # 3 H W -.&.=.$.$.W ~ W -.-.$.$.&.$.:.M.c B c c l l c c B $ #     $ ",
"$ $ B $ $ $ c l c c B c B v Y $.$.$.$.^ ~ @.g $ $ Z C c k $ # 1 E $.-.&.$.$.$.W ~ W -.-.&.$.$.$.&.b.c c B B B B c l B $ #     $ ",
"$     # # # $ B B l c l c n P $.$.$.$.~ ~ o.g $ $ Z C c = # # 5 W -.-.$.&.$.' W ~ W -.-.$.$.$.$.&.n.M l B l B c B B l $ #     $ ",
"$ #         # $ $ $ $ $ $ r D ^ ^ ' ^ ^ ~ o.j $ $ C Z = # # + 6 W -.$.&.$.$.^ W ~ W -.-.=.$.=.$.&.v.p.B c B c B c c l $ #     $ ",
"$ $ $ $ #       # # # # # @ D ~ ~ ~ ~ ~ ^ ] >.>.;.j.,.>.q.# X A W -.&.$.$.$.^ G F A T  .$.$.$.&.$.k.9.c l l c l c l B $ #     $ ",
"$ $ $ $ $ #               . 6 W W W W W W W ~ ^ ^ $.^ X.0.  o S ^ ' &.=.$.:.d   #   Z U $.$.$.$.$.,.e.l l l l c l l $ $ #     $ ",
"$ $ $ $ $ $ #             . 6 W W W W W W W ~ ^ ~ W W ] +.  - S ^ W W W W o.2.  #   Z L $.[ ^ ^ ~ X.t.$ $ $ $ $ $ $ $ $       $ ",
"$ $ $ $ $ $ $ $ $ $ $ $ $ r D ^ ^ ^ ^ ^ ^ ^ ^ ~ ~ ~ ~ X.|   8 Q ^ ^ W W W o.a   #   C q ' ~ ~ ~ ~ [ z.# # # # # # # #         $ ",
"$ c C C C C B c k = $ $ $ r D ^ ^ ^ ^ ^ ~ ~ ~ ~ ~ ^ ~ X.0.# 4 ! ~ ~ ^ ^ W o.s   #     2 W W W W W W d.O                       $ ",
"$ C Z Z Z Z Z Z Z Z Z Z B v P ' ^ ^ ^ ~ &.=.=.=.&.-.&.1.m.C I &.&.$.^ W W o.{ # #     2 W W W W W W #.,                       $ ",
"$ C Z Z Z Z Z Z Z Z Z Z Z i.U T F D F S R  .R ) ) ) )  .z.a.I  .R  .R  .T ..I       $ 4 A A A A 6 A E 4                     $ $ ",
"$ C Z Z c l l l l B B c l B k # $   $ # C Z B B l B B c l c B l B l B C Z Z Z C l     # $ $ $ $             $                   ",
"$ C Z c l l c B B B c l l l l # $   $ # C Z c B B l B l B B l B l l l l B l B C Z B     # $ $ = B B B B B B B B B B B B B B =   ",
"$ C Z l c B l l l c l l B l l # $   $ # C Z l c l B l B l l l l = c l B B l l l l c $   # $ = B Z Z Z Z Z Z Z Z Z Z Z Z Z Z $   ",
"$ C Z B l B B l B c l B l c = $     $ # C Z l l B l l l l c l l B B B = l B l l c $ $   # $ B Z Z B l B l l l B B l l B l l $   ",
"$ C Z B B c l c l l l l B l $ $     $ # C Z l l c l l l l c l l B c l B B B c c c $ $   # $ B Z Z l B l l l l B l B l l B l $   ",
"$ C Z l c l B l B l B l c l $ $     $ $ C Z B l = l c l c = = c c B c B B l B l $ $ $   # $ B Z l B l B l B c l l B l c l B $   ",
"$ C Z B l c l l l c l B l c # $     $ c Z B = l l B c l l = = l c l B l c c B l $ $ #   # $ B Z l c l B c l l l c l B l B l $   ",
"$ C Z l B l c l l l l l B l # $     $ B Z B l c B l l B l l B c l B c B l B l B $ $ #   # $ B Z l l l c c c l B l c l c c # $   ",
"$ C Z l l c l l l l l l l l $ $       Z Z B l B l B l l c l l c c l c l B l c l $ $ #   # $ B = = = = = = = = = = = = = = $ $   ",
"$ C Z B l l l l l B l c l B $ #       Z B $ $ $ $ $ $ $ $ $ $ $ $ $ $ $ $ $ $ $ $ $     $ $ = # # # # # # # # # # # # # # # #   ",
"$ C C l l l B l c l B B l # $ #       B $ # # # # # # # # # # # # # # # # # # # # #     $                                       ",
"$ c C $ $ $ $ $ $ $ $ $ $ $ $ #   $                                                     $                                       ",
"$ $ c # # # # # # # # # # # #     $                                                   # $ #                                   $ ",
"$                                 $ # # # # # # # # # # # # # # # # # # # # # # # # # # $ $ $ # # # # # # # # # # # # # # # # $ ",
"= = = = = = = = = = = = = = = = = = = = = = = = = = = = = = = = = = = = = = = = = = = = = = = = = = = = = = = = = = = = = = = = "
};
