/* XPM */
static char *_5d41ae4e8c44d7aee9fcf9a6259e1a5ySARnIuM1h3N4EdB[] = {
/* columns rows colors chars-per-pixel */
"64 64 30 1 ",
"  c #1B150C",
". c #1F180D",
"X c #261D0F",
"o c #2D2212",
"O c #2C2C2C",
"+ c gray20",
"@ c #451C03",
"# c #650C0C",
"$ c #532205",
"% c #493B24",
"& c #3B4906",
"* c #084B38",
"= c #425009",
"- c #605806",
"; c #52630C",
": c #756C07",
"> c #57442B",
", c #6C532E",
"< c #6F5C36",
"1 c #7D6239",
"2 c #1D3655",
"3 c #0C634B",
"4 c #224063",
"5 c #224572",
"6 c #606060",
"7 c #7E7E7E",
"8 c #830F0F",
"9 c #901111",
"0 c #836A44",
"q c #8E744B",
/* pixels */
"111<<11<<<<<,,<<11<,,<1<<,<11<,,,<<<<<1<10110011<11<<,<,<1<<<1<1",
"11<<,,<,<<,,,<,,,<,,>>,>,,,,<<<<,,<,,,<<<<<11<<<<<,,,,,<<<,,<<11",
"1<.  .......XXXXXXXX............XX.X..XXXXXXXX..  ..XX......  1<",
"11 ....XXXXXXXXXXXXXXXXXXXXXXXXXXXXXXXXXXXXXXXXX.XXXX..XX.. . 1<",
"11.XX.XXXXXXXXXXXXoXXXXXXXXXXXXooXXXXXXXXXXXXXXX4555555442XX..01",
"<1..XXXXXXXXXXXXXooXoXXXoooXXXooXXoXXXXXXXXXXXXo4555544442X...01",
"1<.XXXXXXXXooXoooooooooooooooXXoooXX-::::::-XoXo2455554422XXX.11",
"1<XXXXXXooXXoooooooooooooooooooooXXX-::::::-XXoo2244444222XX.X01",
"11XXXoooXXoooo#88888#$XoooooooooooXX=;;;;;==oXoo4555555442X...11",
"11XXoooXXooooo#8888##$Xooooooooo==&X=;;;;===oooX4555544442.X..11",
"1<.XXXoooooooX#8888##$oXoooooooo=;=&-::::---ooXX245555442233**11",
"1<..XXXoooooXX#88888#$XXooooooo=;;==-:::::--XoXX2244444222****<1",
"1<888#oo@@@@@@#8888##$XXXoooooo=;;;=67777766888$4555555442333*1<",
"<<888#Xo@@$$$@#88888#$XXXXoooo=;;;;=6777766688#$4555555542333*1<",
"<<88##oX@$$$$@#8888##$5542oooX=;;;;=-::::---###$4555555442333*<<",
",,####oX@$$@@@#8888##$5442ooX=;;;;;=-:::::--8##$4555555442****,,",
"qq888#o@@$$$@@#8888##$5542XoX=;;;;;=-::::::-88#$455555554233**qq",
"1<888#o@@$$$@@#8888##$5552XX=;;;;;=&-::::::-888$4555555542****00",
"1<88##X@$$$$@.#8888##$5542X.=;;;;==.-::::---888$4555555542333*01",
"1<####X@$$$@@.#88888#$5442X=;;;;;=&.-:::::--88#$4555555442333*11",
"11888#X@$$$$@.#88888#$5542.=;;;;;=.X-::::::-###$4555555442333*11",
"1<888#X@$$$$@X#88888#$5542==;;;;=&XX-::::::-8##$4555554442****11",
"1<888#X@$$$$@X#8888##$5552=;;;;;=XoX-::::---88#$245554442233**11",
"1<888#@@$$@@@.#88888#$5552=;;;;=&ooo-:::::--888$2244444222****01",
"1188##@@$$$@@.#88888#$5542=;;=;=Xooo-::::::-888$4555555442333*01",
"1<####@$$$$@.X#8888##$5442=;;==&XooX-::::::-888$4555555542333*11",
"11888#@$$$$@.X#88#8##$5542==;==XooXo=;;;;===88#$4555554442333*01",
"1<888#@$$@@@X.#88####$4542&===&XXoXX==;;;;==#8#$2455555422****<1",
"1<88##@@$$@@XX######$$4442&===XXXXXX--:::---###$224444422233**<<",
"<<####@@@@@@%>$$$$$$$$2222%&=&%>>>>>---:::--$$$$2222222222****1<",
",<10011000qq00qqqqqqqq00qqqq0000100011101100qqqqqq000011001011<,",
"<11<<11<<<10000000000110000101111<<<<11111<<111001111<<1111<<11<",
"<1<<,,,,<,,<,,<<,,,,>>,,>,,,<<,,,,<<<<<<<111<<<<<<,<<1<<<<<,<<<1",
"1<11<<<<<<<<<,,<<<<<,,,,,<<<<<<<,,,,<<,,,<<<<<<<,,<<,,,,>,,,,<11",
"11  .XX...  ..XXX.......XX.....XX.....XXX...XX.. ..XX.  ...   11",
"11   ..X...   .XXXX.X....XXXX....X..XXX..X...XXX..XXXXX.X. .. 0<",
"11 ...XooXX..XXXXXXX..=;;;;;;;=& ....#$XXX.XoXXoXX.XXXooXXXX..01",
"1<..XoooXoooXXXoXXXoXX=;;;;;;==&.  ##88$XXXXXoooooXXoooXXXX...11",
"1<#88888#$oXXXoooXXooo&=;;;;==&& ##8888#.ooooooooXoooooooXXXX.0<",
"<1#8888##$oooXXooooXoo&&====&&&&#889888#.XoooooXXXXoooooXXX.XX0<",
"<<#8888##$Xooo45555542=;;;;;===&#8999888#XoXoo=;;;;;=&oXooX.X.01",
"<<#8888##$XooX45555542=;;;;====&#8999888#.Xooo=;;;;;=&XXXooX..11",
"1<67777666XXoX45555552=;;;;;===&#8999898#.Xooo=;;;;==&*333333211",
"<167777666XXXX45555542=;;;;;;==&#88999988#XXoo=;;;;==&*33333*211",
"11#88888#$333*24444422=;;;;====&$#8999998#XXoo=;;;;==&*333***2<1",
"1<#8888##$3***24444222=;;;;;===&.#8999998#.XXo=;;;;;=&*3333**21<",
"<<#8888##$%%%%45555442=;;;;;===&.$88999988#Xoo=;;;;;=&67777666<<",
",,#8888##$%%%%45555542=;;;;;===&X$#8999988#XoX=;;;=;=&67777666,,",
"qq#8888##$****45555552=;;;=====&..#8899998#.XX=;;;=;=&*3333**2qq",
"11#8888##$33**45555542=;;;;====&.X$88999988#X.=;;;=;=&*333***200",
"1<#88888#$333*45555552=;;;;;===&X.$#8999988#..=;;;=;=&6777766600",
"1<#88888#$333*45555552=;;;;;===&X.X#89999988#.=;;;;;=&6777766601",
"1<#8888##$333*45555542O+++++OOOOXXX#88999988$ =;;;;;=&*3333**201",
"1,#8888##$33**45555542O+++++OOOOoXX#88999998$ =;;;=;=&*3333**20<",
"<,#8888##$****45555552O+++++OOOOXoX$88999998#$=;;;=;=&*33333*21<",
"<,#8888##$33**45555542O+++++OOOOXoo$889899988$=;;;===&*33333*211",
"1<#8888##$333*24444422=;;;;;===&Xooo$88899988#=;;;===&*333*3*21<",
"11#8888##$333*24444222=;;;;;===&XXoo$88889988#=;;;===&*333*3*21<",
"11#88#8##$%%%%45555442=;;;=====&XXoX$#88888##$=;;;;==&*333***21<",
"11##8####$%%%%45555542&=;;;====&XoXXX#888##$$X=;;=;==&*33****201",
"1<######$$333*45555422&&======&&XXXXX$###$$X..=;;====&*******20<",
"1<$$$$$$$$3***22222222&&&&&&&&&&%>>>>$$$$%%>>>&&&&&&&&222222221<",
"<1<0010qq0q00qqqqqqq00qq0q000000110000001100qq00qqqq00qq0000111<",
"1<110011001110q0011000010110111<<1101111000001100q011100001111<<"
};
